<?xml version="1.0" encoding="utf-8"?>
<!-- Generator: Adobe Illustrator 22.0.1, SVG Export Plug-In . SVG Version: 6.00 Build 0)  -->
<svg version="1.1" id="Layer_1" xmlns="http://www.w3.org/2000/svg" xmlns:xlink="http://www.w3.org/1999/xlink" x="0px" y="0px"
	 viewBox="0 0 265 528" style="enable-background:new 0 0 265 528;" preserveAspectRatio="none" xml:space="preserve">
<style type="text/css">
	.st0{fill:#C017A2;}
	.st1{fill:none;stroke:#C017A2;stroke-width:2;stroke-miterlimit:10;}
</style>
<g>
	<path class="st0" d="M263.9,282c-9.8,0-18-8.2-18-18c0-9.8,8.2-18,18-18"/>
	<path class="st1" d="M263.9,295c-17.3,0-31.6-13.7-31.6-31s14.3-31,31.6-31"/>
	<path class="st0" d="M263.9,436c-41-0.5-80.8-15.2-111.9-42l1.4-1.6c30.7,26.4,70,41.1,110.5,41.6v-7c-39-0.5-76.6-14.5-106.2-39.9
		l1.4-1.6c28.6,24.6,67.1,38.6,104.8,39.6v-6c-37-0.5-72.7-14.2-100.7-38.3l1.4-1.6c27.6,23.8,62.8,37.4,99.3,37.9v-8
		c-34.7-0.5-68.2-13.1-94.5-35.8l1.4-1.6c25.9,22.4,58.9,34.9,93.2,35.3v-8c-32.4-0.5-63.7-12.1-88.3-33.3l1.2-1.4
		c24.2,20.9,55,32.3,87,32.7v-31c-56.1,0-101-45.9-101-102s44.9-101,101-101V68c-108.1,0.9-196,87.7-196,196
		c0,56.1,24.2,111.5,66,148.9l-1.4,1.6C90.2,376.7,65.9,320.7,65.9,264c0-109.5,88.7-197.1,198-198V56c-114.8,0.9-208,93-208,208
		c0,60.6,26.3,120.1,72.1,159.9l-1.4,1.6C80.3,385.3,53.9,325.3,53.9,264c0-116.2,94-209.1,210-210v-8c-120.5,0.9-218,97.3-218,218
		c0,63.4,27,125.5,74.7,167.3l-1.4,1.6C71,390.7,43.9,328,43.9,264c0-121.9,98.3-219.1,220-220v-9c-126.3,0.9-229,102.5-229,229
		c0,66.8,29.1,132.1,79.7,175.9l-1.4,1.6c-51-44.2-80.2-110.1-80.2-177.5c0-62.1,24.2-118.7,68.1-162.7
		C144.6,57.8,202.4,33.4,263.9,33v-9c-63.9,0.4-124,25.7-169.3,70.9C49,140.6,23.9,199.5,23.9,264c0,70.3,30.5,138.7,83.7,184.7
		l-1.4,1.6C52.5,404,21.9,334.9,21.9,264c0-65.1,25.1-124.6,71.2-170.6c45.7-45.7,106.3-71,170.8-71.4v-9
		c-67,0.4-129.9,26.5-177.3,73.9C38.8,134.7,12.9,196.4,12.9,264c0,73.4,31.5,144.9,87,193.1l-1.4,1.6C42.5,410.2,9.9,338.1,9.9,264
		c0-68.2,27-130.4,75.2-178.6c47.8-47.8,111.3-74,178.8-74.4V1c-145,0-263,118-263,263s118,263,263,263V436z"/>
</g>
</svg>
