<?xml version="1.0" encoding="utf-8"?>
<!-- Generator: Adobe Illustrator 14.0.0, SVG Export Plug-In . SVG Version: 6.00 Build 43363)  -->
<svg version="1.1" id="Layer_1" xmlns="http://www.w3.org/2000/svg" xmlns:xlink="http://www.w3.org/1999/xlink" x="0px" y="0px"
	 viewBox="396 0 745 1500" style="enable-background:new 396 0 745 1500" preserveAspectRatio="none" xml:space="preserve">
<path fill="#C017A2" d="M752.6,907c-1.6,1.6-3.3,3.1-4.9,4.7c-10.4-12.6-22.2-19.2-32.8-31c-8.1,9.3-11.8,19.7-21.2,28.6
	c-13.2-5.4-32.5-21.4-45.9-26.5c-2.2-0.8-16.7-4-17.8-3.3c-2,1.3-8.4,32.5-7.8,36.3c0.9,5.4,6.9,10.3,6,15.7
	c11.1,10.9,40.9,9.4,51,23.4c7.6,10.4,4.8,33.7,7.4,49.9c3.1,19.3,9.7,34.7,13.6,51.4c-1.4-2.1-2.7-4.2-3.9-6.4
	c1.1,10.2,0.9,20.7-0.8,30.6c4.8,6.6,9.7,13.1,14.8,19.5c7.2-6.5,14.4-13.3,21.4-20.7c30.6-32.3,66-69.9,97.3-102.8
	C807.5,956.4,774.2,928.7,752.6,907z"/>
<path fill="#C017A2" d="M891,177.4c-6-6.1-12-12.5-18.2-19.5c-55.3,25-106.5,57.5-152.3,96.1c12.1,0.9,24.2,1.8,36.3,2.9
	C797.8,225.1,842.8,198.3,891,177.4z"/>
<path fill="#C017A2" d="M660.8,1150c4.9-6,10.4-11.7,16.2-17.3c-40.2-50.3-72-107-94.5-167.3c-4.5,10.2-8.8,20.3-12.7,30.6
	C592.6,1051.3,623.2,1103.3,660.8,1150z"/>
<path fill="#C017A2" d="M784.3,259.8c0.7,3.5,1.5,7,2.2,10.5c38.9-28.5,81.3-52.5,126.6-71.2c-6-5.7-11.9-11.4-17.8-17.2
	c-46.6,20.1-90.2,45.6-130.1,75.8C771.7,258.2,778,258.9,784.3,259.8z"/>
<path fill="#C017A2" d="M472,535.5c5.1-0.7,10.1-1.2,15.2-1.7c29.1-87.2,76-167.7,139.2-238.4c-10.4-2.4-20.1-4.6-28.9-6.6
	c-68.9,80.2-118,172-145.3,271.5C458.2,550.5,464.3,541.2,472,535.5z"/>
<path fill="#C017A2" d="M512.2,858c4,1.9,8.2,3,12.6,3.7c-2.6-14.9-4.7-29.9-6.3-45C516.3,830.7,514.1,844.7,512.2,858z"/>
<path fill="#C017A2" d="M598.2,514.2c5.5-1.2,11-2.4,16.5-3.6c3.5,4.3,7,8.6,10.5,12.9c36.9-83.5,93.7-156.1,164.3-212.3
	c-2.3-10.2-4.6-20.4-6.8-30.6C702.8,341.1,638.8,421.3,598.2,514.2z"/>
<path fill="#C017A2" d="M667.2,1157.8c2.2,2.6,4.3,5.2,6.5,7.7c1.5-9,4.3-17.6,9-25.7c-0.6-0.7-1.2-1.4-1.7-2.1
	C676.1,1143.7,671.6,1151,667.2,1157.8z"/>
<path fill="#C017A2" d="M660,1168.3c10.8,14,7.2,24.5,8.8,36.2c2.3,2.4,4.6,4.8,6.9,7.2c-2.5-13.1-3.8-25.8-2.9-38.1
	c-3.1-3.5-6.1-7-9-10.5C662.5,1164.9,661.2,1166.7,660,1168.3z"/>
<path fill="#C017A2" d="M594.6,522.5c-29.3,69.9-45.5,146.7-45.5,227.5c0,24.5,1.5,49,4.5,73.2c9.9,3.8,20,7.2,30.1,10.3
	c-4.1-27.6-6.2-55.6-6.2-83.6c0-77.3,15.6-150.8,43.7-217.5c-3-3.9-6.1-7.7-9.1-11.6C606.4,521.2,600.5,521.8,594.6,522.5z"/>
<path fill="#C017A2" d="M583.8,951.8c6.4-0.3,12.5,0.6,19.3-1.6c1.9-5.2,3.4-10.5,4.7-15.9c-5.3-15.8-9.9-31.8-13.9-48
	c-8.6,5-17.5,11.7-25.6,14.9C572.8,918.3,577.9,935.2,583.8,951.8z"/>
<path fill="#C017A2" d="M586.2,957c-0.1,0.2-0.2,0.5-0.3,0.7c22.4,61.6,54.6,119.5,95.5,170.8c6.8-6.4,13.9-12.6,21.2-19.1
	c-38.3-48.3-68.5-102.8-89.6-160.7c-0.5,2.8-1.3,5.4-2.6,7.6C602.1,957.5,594,957.6,586.2,957z"/>
<path fill="#C017A2" d="M560.5,866.5c0.3,0.1,0.5,0.2,0.8,0.3c0.9,6.8,9.5,15.4,9.9,22.1c6.8-2.7,13.8-6.4,21-10.3
	c-2.9-12.7-5.4-25.4-7.4-38.3c-10.1-3.7-20.2-7.4-30.3-11C556.1,841.7,558.1,854.2,560.5,866.5z"/>
<path fill="#C017A2" d="M507.9,994.8c-7.2-17.4-13.8-35.1-19.6-53c-2.3-1.5-4.6-2.9-6.9-4.3c-4.3-19.7-18-27.7-31.3-35.4
	c10.4,41.3,24.3,81.6,41.6,120.4c4.6-2.1,8.6-3.6,11.3-4.2C504.7,1009.9,506.4,1002.2,507.9,994.8z"/>
<path fill="#C017A2" d="M657,1154.9c-37-45.8-67.3-96.6-90.2-150.7c-1.2,3.5-2.4,7-3.5,10.5c0.3-4.1,1.1-8.7,2.2-13.5
	c-17.8-42.7-31.2-87.3-39.6-132.9c-6.1-0.4-12.3-0.7-17.9-1.6c-2.8,0.6-5.4,1.1-7.9,1.6c12.9,70.8,37.1,139.1,71.5,202
	c4.6,0.6,9,1.4,13.3,3.2c9.2,18.8,15.8,36.6,22.3,54.6c18,26.1,37.9,51,59.6,74.3c-4.5-9.7-6.9-24.4-17.2-36.6
	C651.9,1162,654.4,1158.4,657,1154.9z"/>
<path fill="#C017A2" d="M567,895.7c0.1,0.3,0.2,0.7,0.3,1C567.2,896.4,567.1,896.1,567,895.7z"/>
<path fill="#C017A2" d="M463.3,872.4c-7.1-40.2-10.7-81.2-10.7-122.4c0-72.8,11-143.1,32.4-209.6c-2.4,0.2-4.8,0.4-7.1,0.6
	c-11.4,13.9-21.1,28.5-31.7,42.7C433.5,637.3,427,692.9,427,750c0,51.3,5.4,102.3,16,152.1C448.7,887.7,455.7,878.4,463.3,872.4z"/>
<path fill="#C017A2" d="M991.4,207.9c-1-8.7,1.2-19.1,1.7-29.5c-22.9,5.9-45.3,13.2-67,21.7c1.4,1,2.9,2,4.3,2.7
	C949.7,212.8,972,199.3,991.4,207.9z"/>
<path fill="#C017A2" d="M927.9,213.1c-3.5-3.3-6.9-6.5-10.2-9.7c-46.5,19-90.1,43.6-129.8,73.1c2.2,10,4.6,20.1,7.1,30.2
	c56.4-43.8,121.5-77.1,192.1-97.3C967.4,210.5,947.1,214.3,927.9,213.1z"/>
<path fill="#C017A2" d="M690.4,1128.8c-1.8,1.2-3.6,2.7-5.2,4.3c0.3,0.4,0.7,0.8,1,1.2C687.5,1132.5,688.9,1130.6,690.4,1128.8z"/>
<path fill="#C017A2" d="M493.7,1027c1.6,3.6,3.3,7.1,4.9,10.6c1.4-5.9,2.6-11.3,3.5-15.3C499.6,1023.8,496.7,1025.3,493.7,1027z"/>
<path fill="#C017A2" d="M514.1,959.7c-5.9-4.4-11.9-8.7-18-12.7c4.3,12.6,8.8,25,13.8,37.3C511.6,975.6,513.1,967.5,514.1,959.7z"/>
<g>
	<path fill="#C017A2" d="M667.9,259.5c73.5-61.8,158.5-106.4,249.7-131.4c-4-7.8-8-15.5-12-23.2c-100.3,28.3-193.2,79.4-272.4,150.6
		C644.6,257.2,656.3,258.4,667.9,259.5z"/>
	<path fill="#C017A2" d="M612.3,251.9c4.4,0.9,8.8,1.7,13.2,2.4c80.4-73.4,175-125.8,277.3-154.7c-4-7.7-8.1-15.5-12.4-23.2
		c-105.8,30.6-203.5,85.5-286.3,162.1C607.5,244.3,610.4,249.2,612.3,251.9z"/>
	<path fill="#C017A2" d="M878.5,73.8c-32.2,0.9-65.4,5.7-97.9,8.1c-0.1-0.6-0.2-1.2-0.3-1.8c-71.4,32.3-136.8,75.6-194.2,127.6
		c4.7,7.4,10.1,16.9,15,25.4C681.6,158.8,776.2,105,878.5,73.8z"/>
</g>
<path fill="#C017A2" d="M432.5,581.8c26.4-108.2,78.3-208,152.2-294.5c-3.6-0.8-7-1.5-10.2-2.2c-12.4,6.5-24,9.8-35.9,14.1
	C472.3,386.6,424.7,488.9,402,600.1C407.2,599.7,427.8,588.1,432.5,581.8z"/>
<path fill="#C017A2" d="M568,991.7c3.2-10.9,7.5-22.5,12-32.9c-9.5-26.3-17.2-53.4-23-80.8c-6.8-6.1-15.8-8.2-25.1-9.2
	C539.8,910.9,551.9,952.2,568,991.7z"/>
<path fill="#C017A2" d="M1140,62.5V36.9c-67.5,0.4-133.6,10-196.7,28.2c4.3,7.7,8.5,15.4,12.7,23.1C1015.2,71.7,1077,62.9,1140,62.5
	z"/>
<path fill="#C017A2" d="M1140,93.8V68.2c-62,0.4-122.8,9-181.1,25.4c4.2,7.7,8.4,15.4,12.6,23.1C1025.9,101.9,1082.4,94.1,1140,93.8
	z"/>
<path fill="#C017A2" d="M1029.6,148.7c-10.9-1-22.6,1.4-34.2,3.1c0.1,6.5,0.4,13.1,0.7,19.9c14.6-3.7,29.4-6.8,44.4-9.4
	C1036.8,157.9,1033.2,153.4,1029.6,148.7z"/>
<path fill="#C017A2" d="M818.7,409.1c41.4,13.5,83.8,23.2,125.9,34.1c6.5-8.6,9.2-18.1,15.3-26.8c38.4,3.6,74.5,16.8,112.8,21.1
	c2.9-41.9,6-83.7,7.9-125.8c-28-19.6-57.6-32.3-85.6-51.6c-0.6-15.4,0-30.5-2.1-46.3c-72.4,20.1-138.9,54.1-196.3,99.1
	C804.5,345.1,812.8,377.4,818.7,409.1z"/>
<path fill="#C017A2" d="M940.4,60c64.1-18.6,131.1-28.3,199.6-28.7V2.8C1034.1,2.8,933.2,25,841.8,65c31.6-2.9,63.3-6.5,95.3-11
	C938.2,55.9,939.3,58,940.4,60z"/>
<path fill="#C017A2" d="M547.6,820.9c0-0.3-0.1-0.6-0.1-0.9C547.5,820.3,547.5,820.6,547.6,820.9
	C547.5,820.8,547.6,820.9,547.6,820.9z"/>
<path fill="#C017A2" d="M1072.8,197.7c-25.3,3.2-50.1,8.1-74.3,14.5c0.9,15.4,1.7,30.6,1.6,44.8c29,16.8,58.3,32.3,87.4,48.7
	c1.6,37.9-4.3,73.9-4.4,111.4c3.3,8.4,14.3,12.1,17.1,19.5c2.5,6.7-0.4,18.5-3.9,29.8c14.2-2.1,28.8-3.2,43.6-3.2V210
	c-18,1.1-36,1.8-54,2.7C1081.7,207.5,1077.3,202.5,1072.8,197.7z"/>
<path fill="#C017A2" d="M1090.6,202.9c16.4-0.3,33-1,49.5-1.4v-8.3c-18.9,0.2-37.6,1.2-56.1,3.2
	C1086.2,198.6,1088.4,200.7,1090.6,202.9z"/>
<path fill="#C017A2" d="M484.1,750c0-75.1,12.5-147.3,36.4-215.2c-9.4,2-19.5,3.7-29,4.9c-21.9,66.7-33.2,137.2-33.2,210.3
	c0,40,3.5,79.7,10.2,118.8c8-4.7,16.6-6.3,25.1-6.5C487.3,825.3,484.1,787.7,484.1,750z"/>
<path fill="#C017A2" d="M1045.6,161.4c30.8-5,62.3-7.8,94.5-8v-20.7c-36,5.2-71.8,9.3-107.8,14.4
	C1036.1,151.9,1040.7,156.7,1045.6,161.4z"/>
<path fill="#C017A2" d="M1140,187.5v-28.4c-30.3,0.2-60.1,2.7-89.2,7.3c8.9,8.2,18.6,16.5,27.7,24.9
	C1098.7,189,1119.2,187.7,1140,187.5z"/>
<path fill="#C017A2" d="M652.8,1275.5c3.9-4.1,7.6-8.2,11.2-12.4c-0.6-6.2-1.1-12.3-1.5-18.3c-34.8-49.9-62.2-104.4-82-161.6
	c-9.8-3.3-22.1-1.3-30.2-9.3"/>
<path fill="#C017A2" d="M531.9,1030.3c-5.8,11.7-11.1,24.9-16.6,37.9c23.8,82.4,62.1,160.6,114,230c6.6-6,13.1-12,19.2-18.2
	C592.8,1205.2,553.6,1120,531.9,1030.3z"/>
<path fill="#C017A2" d="M510.9,1078.3c-2.7,6-5.5,11.9-8.4,17.4c5.5,15.9,16.4,26.8,18.5,39.5c1.4,8.5-1.8,16.6-5.4,24.4
	c24.6,55.8,55.8,108.4,93,156.5c5.4-4.6,10.8-9.3,16.1-13.9C573.8,1234.5,535.5,1158.5,510.9,1078.3z"/>
<path fill="#C017A2" d="M555.5,528.1c-5.3,0.8-10.5,1.5-15.7,2.1c-4,1.1-8.5,2.2-13.2,3.3c-24,67.7-37,140.5-37,216.5
	c0,37.7,3.3,75.3,9.7,112.3c2.1,0.1,4.2,0.2,6.2,0.4c3.6-21.2,7.6-42.4,11.6-63.6c-1.2-16.3-1.9-32.7-1.9-49.1
	C515,671.6,529.3,596.9,555.5,528.1z"/>
<path fill="#C017A2" d="M888.1,945.8c-21.3,6.7-31.8,25.5-56.7,39.3c-21.3,22.9-40.3,46.3-63.7,68.7c-3.2,13.8-5.7,27.7-8,41.7
	c13.2,4.7,45.3,18.8,55.5,36.5c7,12.1,4.2,36.1,5.6,52.7c1.6,19.1,1.5,36.6,2.8,50.9c-9.4-29.2-12.6-66.4-15.4-97.7
	c-17.7-15.3-34.7-33.5-55.5-36.5c-1.3-14.9,8.9-26.9,10.1-41.2c-15.8,17.9-33.7,35.2-49.3,53.1c17.5,21.2,36.5,41.2,57.1,59.6
	l-4,4.5c-20.6-18.4-39.6-38.3-57.1-59.4c-6.4,7.6-12.4,15.4-17.6,23.4c18.9,22.4,39.6,43.4,61.9,62.8l-4,4.5
	c-22.1-19.1-42.5-39.9-61.3-61.9c-2.7,4.5-5.1,9-7.1,13.6c0.5,5,0.8,10,0.9,14.9c15.8,17.6,32.7,34.3,50.5,49.9l-4,4.5
	c-16.4-14.3-31.9-29.5-46.5-45.4c0,11.9-0.2,23.7,1.9,36.1c10.2,10.1,20.7,19.8,31.5,29.2l-4,4.5c-8.6-7.4-16.9-15.1-25-22.9
	c1.1,3.6,2.4,7.3,4,11.1c-3.9,5.6-8,11.2-12.2,16.7c5.7,5.3,11.4,10.4,17.3,15.5l-4,4.5c-5.8-5-11.4-10-17-15.2
	c-5.3,6.9-10.8,13.7-16.5,20.6c5.1,4.7,10.3,9.4,15.6,13.9l-4,4.5c-5.2-4.5-10.4-9.2-15.5-13.8c-4.5,5.4-9.2,10.7-14,16
	c132.4,119.2,307.6,191.9,499.3,191.9v-258.5c-116.5-1.4-229.5-43.2-317.9-119.3l4-4.5c87.2,75,198.9,116.8,313.9,118.2v-19.9
	c-110.8-1.4-217.6-41.2-301.7-113.4l4-4.5c81.3,69.9,190.6,109.7,297.7,112.5v-17c-105.1-1.4-206.5-40.3-286.1-108.8l4-4.5
	c78.4,67.6,178.4,106.3,282.1,107.7v-22.7c-98.6-1.4-193.8-37.2-268.5-101.7l4-4.5c73.6,63.6,167.3,99.1,264.8,100.3v-22.7
	c-92-1.4-181-34.4-250.9-94.6l3.4-4c68.8,59.4,156.3,91.8,247.2,92.9v-88.1c-79.2,0-150.5-32.2-202.2-84.1c-1.3-0.3-2.7-0.6-3.9-0.8
	C922.7,952.7,900,942.1,888.1,945.8z"/>
<path fill="#C017A2" d="M520.7,750c0,8.6,0.2,17.2,0.5,25.9c2-10.7,3.9-21.4,5.8-32.1c-0.7,15-2.6,31.4-5,48.3
	c1.6,23.6,4.4,47.1,8.6,70.3c7.9,0.7,16,0.7,23.6,2.3c-2.4-12.5-4.4-25-6-37.7c-1.7-0.6-3.5-1.2-5.2-1.9
	c-0.2-21.9-18-57.8-16.2-79.2c1.4,13.8,15.9,45,19.6,65.6c-2.1-20.5-3.1-41-3.1-61.7c0-80.4,15.9-156.9,44.6-226.7
	c-8.7,1.2-17.4,2.5-26.1,3.8C535.3,596.1,520.7,671.2,520.7,750z"/>
<path fill="#C017A2" d="M522,530.5c29.9-82.8,76.9-159,139.2-225.8c-9.8-2.2-20.1-5.7-28-7.8C570.1,367,523,446.7,493.6,533.2
	c8.4-0.7,16.8-1.3,25.1-1.9C519.8,531,520.9,530.8,522,530.5z"/>
<path fill="#C017A2" d="M987.1,142.1c4.5-0.2,9-0.5,13.5-0.8c44.8-10.3,91.5-16,139.4-16.3V99.4c-57.3,0.4-112.8,8.1-165.8,22.2
	c2.7,4.9,5.3,9.9,8,14.8C983.9,138.3,985.5,140.2,987.1,142.1z"/>
<path fill="#C017A2" d="M817.8,626.2c-18.3-3.8-35.7-4.9-52.9-5.3c-4.2-4.5-7.2-9.5-10.4-14.3c-5.5-3.7-10.9-7.6-16.4-11.2
	c-16.8,7.8-33.5,15-50.1,21.6c-20.8-26.6-41.8-52.8-62.6-79.3c-27.1,65.3-42.1,137-42.1,212.4c0,28.6,2.2,57.2,6.6,85.4
	c10.5,3.2,21.1,6.1,31.6,9c10.7-6.5,21.4-13,32.1-19.4c-3.4-12.1-10.2-25.1-17.9-38.2c24.2-37.7,60.2-72.6,73.5-113
	c-5.4,36.9-40.7,75.9-63.5,112.2c7.9,11.4,8.2,25.1,16.9,33.6c6.1,5.9,18.7,3.5,26.8,6.6c18.7,7.1,37.5,25.1,54.9,29.8
	c31.2-45.9,69.8-90,110.2-133.6c2.5-26.2,8.4-51.4,17.4-75c-13.4,0.5-26.9,0.3-40.2,1.2C824.1,642,823.2,633.4,817.8,626.2z"/>
<path fill="#C017A2" d="M612.5,867.3c2.9,4.4,7.1,3.5,10.1,7.9c22.6-10.5,36.1-23.2,31.7-40.3c-10.3,6.2-20.5,12.4-30.8,18.7
	c-10.9-3.5-21.8-7.3-32.6-11.2c1.8,11.1,4,22.2,6.5,33.1C602.5,872.8,607.5,869.9,612.5,867.3z"/>
<path fill="#C017A2" d="M647.6,290.8c9.9,2.6,19.2,5.8,28.2,7.9c2.9-3,5.8-6,8.7-8.9c10.7-10.7,21.7-21,33-30.9
	c-11.4-1.2-22.8-2.5-34-4.1c-5.9,5.5-11.7,11.1-17.4,16.8C659.8,277.9,653.6,284.3,647.6,290.8z"/>
<path fill="#C017A2" d="M756.3,867.5c21.8,21.2,51.8,54.3,73.1,77.7c18.8-12.3,40-23.6,59.1-35.7c13,3.8,26,7.6,38.9,11.8
	c-30.2-44.8-48-98.2-49.5-154.7C847.2,804.1,800.5,835.3,756.3,867.5z"/>
<path fill="#C017A2" d="M617.7,881.7c-5.2-3.2-11.6-1.7-18.5,1.7c3.2,13.4,6.9,26.6,11.1,39.7C613.1,909.4,614.9,895.4,617.7,881.7z
	"/>
<path fill="#C017A2" d="M921,195.9c23.4-9.3,47.5-17.1,72.3-23.5c-0.1-5.1-0.8-10.1-2.6-14.9c-0.6-1.6-1.4-3.2-2.2-4.8
	c-2.3,0.3-4.7,0.5-7,0.6c-0.2-0.4-0.4-0.8-0.7-1.1c-26.6,7.1-52.5,16-77.6,26.4C909.2,183.8,915,190.5,921,195.9z"/>
<path fill="#C017A2" d="M998.2,206.4c22.8-6,46.1-10.6,69.9-13.8c-7.8-8.3-15.6-16.5-23.2-25.2c-16.4,2.7-32.5,6.1-48.4,10.2
	C997,187,997.6,196.7,998.2,206.4z"/>
<path fill="#C017A2" d="M874.1,157.3c9,5.2,15.4,10.1,24.2,17c25.7-10.8,52.3-19.9,79.7-27.3c-4.4-7.7-8.6-15.3-12.7-22.9
	C933.9,133,903.4,144.1,874.1,157.3z"/>
<path fill="#C017A2" d="M758.9,262.6c-85.9,66.9-153.6,155.9-194.6,258.6c9-1.9,18-3.7,27-5.6c41.3-96.2,107.2-179.2,190-241.4
	c-0.6-2.7-1.2-5.3-1.8-8C772.7,264.8,765.8,263.6,758.9,262.6z"/>
<path fill="#C017A2" d="M657.4,488.2c15.5,28.8,30.9,57.8,45.6,88.2c15.9-0.7,33.8-5.9,50-7.5c8.5,8.3,16.1,18.5,24.2,27.8
	c14.9,8.2,35.9,8.4,52.5,13.4c4.9,7.9,5.7,16.4,9.4,24.5c13.1,2.9,26.2,5.3,39.3,7.9c32.1-48.8,78.2-86.3,131.7-107.8
	c0.8-1.7,1.6-3.2,2.4-4.6c7.1-12.4,14.7-21.4,18.3-32.5c-8-9.8-18.2-14.6-31.8-12.1c-6.5-6.5-14-11-21.4-15.5
	c-40.5-18.4-81-36.6-119.6-59.2c-0.3-33-1.3-66.4-2.4-99.8C776.7,353,708.4,413.6,657.4,488.2z"/>
<path fill="#C017A2" d="M568.4,901.2c-0.4-1.5-0.7-2.9-1.1-4.4c0.3,1.4,0.6,2.9,0.9,4.5C568.3,901.2,568.3,901.2,568.4,901.2z"/>
<path fill="#C017A2" d="M546.6,811.7c0.3,2.8,0.6,5.5,0.9,8.3C547.5,817.5,547.1,814.7,546.6,811.7z"/>
<path fill="#C017A2" d="M669.2,1206.6c-0.1-0.7-0.2-1.4-0.3-2.1c-0.7-0.7-1.3-1.4-2-2.1C667.6,1203.9,668.3,1205.3,669.2,1206.6z"/>
<path fill="#C017A2" d="M1140,801.1c-27.8,0-51.1-23.3-51.1-51.1s23.3-51.1,51.1-51.1"/>
<path fill="none" stroke="#C017A2" stroke-width="2" stroke-miterlimit="10" d="M1140,838.1c-49.1,0-89.8-38.9-89.8-88.1
	s40.6-88.1,89.8-88.1"/>
</svg>
