<?xml version="1.0" encoding="utf-8"?>
<!-- Generator: Adobe Illustrator 22.0.1, SVG Export Plug-In . SVG Version: 6.00 Build 0)  -->
<svg version="1.1" id="Layer_1" xmlns="http://www.w3.org/2000/svg" xmlns:xlink="http://www.w3.org/1999/xlink" x="0px" y="0px"
	 viewBox="0 0 25 25" style="enable-background:new 0 0 25 25;" xml:space="preserve">
<style type="text/css">
	.st0{fill:#EEEEEE;}
</style>
<g>
	<path class="st0" d="M24.3,20c-0.5-0.2-1.2,0-1.4,0.5c-0.2-0.1-0.4-0.1-0.6-0.1c-1.1,0-2,0.9-2,2s0.9,2,2,2c1.1,0,2-0.9,2-2
		c0-0.1,0-0.1,0-0.2c0.3-0.1,0.6-0.3,0.7-0.7C25.2,21,24.9,20.3,24.3,20z"/>
	<path class="st0" d="M1.6,7.6C1,7.4,0.3,7.7,0.1,8.3c-0.2,0.6,0,1.3,0.6,1.5C1.3,10,2,9.7,2.3,9.1C2.5,8.5,2.2,7.9,1.6,7.6z"/>
	<path class="st0" d="M13.8,0.6c-2.4,0-4.6,0.8-6.4,2C7,2.3,6.4,2.2,5.8,2.2C4,2.2,2.6,3.6,2.6,5.3c0,0.9,0.4,1.7,1,2.3
		c-0.5,1.2-0.7,2.5-0.7,3.9c0,6,4.9,10.9,10.9,10.9s10.9-4.9,10.9-10.9S19.8,0.6,13.8,0.6z M17,6.5c0,0.4,0,1,0,1.4
		c-0.2,0-0.4,0-0.6,0c-0.3,0-0.5,0-0.8,0c-0.4,0-0.6,0.3-0.6,0.6c0,0.4,0,0.9,0,1.4c0.7,0,1.2,0,1.9,0c0,0.3,0,0.5-0.1,0.8
		c-0.1,0.5-0.1,0.9-0.2,1.4c0,0.1-0.1,0.1-0.2,0.1c-0.5,0-1,0-1.5,0c-0.1,0-0.2,0-0.3,0c0,2.3,0,4.2,0,6.3c-0.9,0-1.8,0-2.6,0
		c0-2.1,0-4.2,0-6.3c-0.4,0-0.9,0-1.3,0c0-0.8,0-1.5,0-2.3c0.5,0,0.9,0,1.4,0c0-0.4,0-0.8,0-1.2c0-0.4,0-0.8,0-1.2
		c0.2-1.2,0.9-1.9,2.1-2.1C15.1,5.2,16,5.3,17,5.3C17,5.7,17,6.1,17,6.5z"/>
</g>
</svg>
