<?xml version="1.0" encoding="utf-8"?>
<!-- Generator: Adobe Illustrator 22.0.1, SVG Export Plug-In . SVG Version: 6.00 Build 0)  -->
<svg version="1.1" id="Layer_1" xmlns="http://www.w3.org/2000/svg" xmlns:xlink="http://www.w3.org/1999/xlink" x="0px" y="0px"
	 viewBox="0 0 25 25" style="enable-background:new 0 0 25 25;" xml:space="preserve">
<style type="text/css">
	.st0{fill:#EEEEEE;}
</style>
<g>
	<path class="st0" d="M21.8,1.5c-0.6-0.2-1.3,0-1.5,0.6c-0.2,0.6,0,1.3,0.6,1.5c0.6,0.2,1.3,0,1.5-0.6C22.7,2.4,22.4,1.8,21.8,1.5z"
		/>
	<path class="st0" d="M23.1,21c-0.6-0.2-1.3,0-1.5,0.6c-0.2,0.6,0,1.3,0.6,1.5c0.6,0.2,1.3,0,1.5-0.6C24,21.9,23.7,21.3,23.1,21z"/>
	<path class="st0" d="M22,7.8c-0.7-0.3-1.4-0.4-2.1-0.4c-0.6-1-1.4-1.9-2.3-2.7c0.5-0.4,0.8-0.9,0.8-1.6c0-1.1-0.9-1.9-1.9-1.9
		c-1,0-1.8,0.7-1.9,1.7c-1.2-0.5-2.5-0.7-3.8-0.7C4.8,2.3,0,7.1,0,13s4.8,10.7,10.7,10.7c4.4,0,8.2-2.7,9.9-6.5
		c1.7-0.2,3.3-1.3,4.1-3C25.7,11.7,24.5,8.8,22,7.8z M13.9,14c-0.1,2-1.7,4-4.5,4.5c-3.4,0.5-6.7-1.9-6.8-5.3
		C2.5,9.9,5.1,7.2,8.3,7.2c1.3,0,2.9,0.4,4,1.4l-1.6,1.5c-0.5-0.4-0.9-0.6-1.4-0.7c-2.1-0.5-4.2,0.8-4.6,3c-0.3,2.2,1.4,4.1,3.5,4.1
		c2,0,3.1-1.1,3.3-2.4H8.4V12h5.5V14z M22.7,13.6h-2.6v2.6h-1.6v-2.6h-2.6V12h2.6V9.4h1.6V12h2.6V13.6z"/>
</g>
</svg>
