<?xml version="1.0" encoding="utf-8"?>
<!-- Generator: Adobe Illustrator 22.0.1, SVG Export Plug-In . SVG Version: 6.00 Build 0)  -->
<svg version="1.1" id="Layer_1" xmlns="http://www.w3.org/2000/svg" xmlns:xlink="http://www.w3.org/1999/xlink" x="0px" y="0px"
	 viewBox="0 0 25 25" style="enable-background:new 0 0 25 25;" xml:space="preserve">
<style type="text/css">
	.st0{fill:#EEEEEE;}
</style>
<g>
	<g>
		<path class="st0" d="M18,12.1c0-0.5,0-1-0.1-1.5c-0.1-1.1-0.8-1.9-1.9-2.1c-0.6-0.1-1.2-0.1-1.8-0.1c-1.1,0-2.2,0-3.3,0
			c-0.6,0-1.2,0-1.7,0.1c-1,0.1-1.6,0.7-1.9,1.6c-0.1,0.3-0.1,0.6-0.1,0.9c0,1.2,0,2.4,0,3.6c0,0.8,0,1.5,0.1,2.3
			C7.2,18.1,7.9,18.8,9,19c0.6,0.1,1.2,0.1,1.8,0.1c1.1,0,2.2,0,3.3,0c0.5,0,1,0,1.6-0.1c0.5,0,0.9-0.2,1.3-0.5
			c0.6-0.5,0.9-1.2,0.9-1.9c0-1,0.1-2,0.1-3c0,0,0,0,0,0C18,13.2,18,12.7,18,12.1z M12.5,17.2c-1.9,0-3.4-1.5-3.4-3.4
			c0-1.9,1.5-3.3,3.5-3.3c1.9,0,3.4,1.5,3.4,3.4C15.9,15.7,14.4,17.2,12.5,17.2z M16.1,11.1c-0.4,0-0.8-0.4-0.8-0.8
			c0-0.4,0.4-0.8,0.8-0.8c0.5,0,0.8,0.4,0.8,0.8C16.9,10.7,16.5,11.1,16.1,11.1z"/>
		<path class="st0" d="M21.4,8.2c0.4-0.3,0.7-0.7,0.9-1.2c0.7-1.6-0.1-3.4-1.7-4.1c-1.5-0.6-3.2,0-4,1.4c-1.3-0.5-2.7-0.8-4.2-0.8
			c-6,0-10.8,4.8-10.8,10.8c0,6,4.8,10.8,10.8,10.8s10.8-4.8,10.8-10.8C23.3,12,22.6,9.9,21.4,8.2z M19.3,12.2c0,1.1,0,2.3,0,3.4
			c0,0.8,0,1.5-0.3,2.3c-0.4,1.3-1.4,2-2.7,2.3c-0.6,0.1-1.2,0.1-1.9,0.1c-0.6,0-1.3,0-1.9,0c0,0,0,0,0,0c-0.9,0-1.8,0-2.7,0
			c-0.8,0-1.5-0.2-2.2-0.6c-0.9-0.5-1.4-1.3-1.6-2.3c-0.1-0.6-0.1-1.2-0.1-1.8c0-1.3,0-2.6,0-3.9c0-0.7,0-1.4,0.3-2
			c0.4-1.3,1.4-2,2.7-2.3c0.7-0.1,1.4-0.1,2.1-0.2c1.2,0,2.3,0,3.5,0c0.8,0,1.6,0,2.3,0.3c1.3,0.4,2.1,1.3,2.3,2.6
			C19.3,10.8,19.3,11.5,19.3,12.2z"/>
		<path class="st0" d="M12.5,11.6c-1.2,0-2.2,1-2.2,2.2c0,1.2,1,2.2,2.2,2.2c1.2,0,2.2-1,2.2-2.2C14.7,12.6,13.7,11.6,12.5,11.6z"/>
	</g>
	<path class="st0" d="M15.7,0.1c-0.6-0.2-1.3,0-1.5,0.6c-0.2,0.6,0,1.3,0.6,1.5c0.6,0.2,1.3,0,1.5-0.6C16.6,1,16.3,0.3,15.7,0.1z"/>
</g>
</svg>
