<?xml version="1.0" encoding="utf-8"?>
<!-- Generator: Adobe Illustrator 22.0.1, SVG Export Plug-In . SVG Version: 6.00 Build 0)  -->
<svg version="1.1" id="Layer_1" xmlns="http://www.w3.org/2000/svg" xmlns:xlink="http://www.w3.org/1999/xlink" x="0px" y="0px"
	 viewBox="0 0 250 100" style="enable-background:new 0 0 250 100;" xml:space="preserve">
<style type="text/css">
	.st0{fill:#8E7E7E;}
	.st1{fill:#FFFFFF;}
</style>
<path class="st0" d="M100,31.3l7-1.6v32.7c0,3.6,1.1,5.7,3.3,6.4c-1.1,2-2.9,3-5.5,3c-3.2,0-4.8-2.1-4.8-6.4V31.3z"/>
<polygon class="st0" points="117,70 117,48 114,48 114,42 124,42 124,70 "/>
<path class="st0" d="M120.5,31.6c4.9,0,4.9,7.6,0,7.6C115.6,39.2,115.6,31.6,120.5,31.6z"/>
<path class="st0" d="M149,70V53.9c0-2.4-0.4-4.1-1.3-5.2c-0.9-1.1-2.3-1.6-4.3-1.6c-0.9,0-1.9,0.3-2.9,0.8c-1,0.5-1.9,1.2-2.4,2V70
	h-6V42h4.6l1.2,2.6c1.7-2.1,4.3-3.1,7.7-3.1c3.3,0,5.8,1,7.7,3c1.9,2,2.8,4.8,2.8,8.4V70H149z"/>
<path class="st0" d="M161,56.4c0-4.3,1.2-7.7,3.7-10.4c2.5-2.7,5.7-4,9.7-4c4.2,0,7.5,1.3,9.9,3.9c2.3,2.6,3.5,6.1,3.5,10.6
	c0,4.4-1.2,8-3.6,10.6c-2.4,2.6-5.7,3.9-9.8,3.9c-4.2,0-7.5-1.3-9.9-4C162.2,64.3,161,60.7,161,56.4z M167.8,56.4
	c0,6.2,2.2,9.2,6.6,9.2c2,0,3.6-0.8,4.8-2.4c1.2-1.6,1.8-3.9,1.8-6.8c0-6.1-2.2-9.1-6.6-9.1c-2,0-3.6,0.8-4.8,2.4
	C168.4,51.3,167.8,53.5,167.8,56.4z"/>
<path class="st0" d="M211,70v-1.7c-0.6,0.6-1.6,1.1-2.9,1.6c-1.4,0.4-2.8,0.7-4.3,0.7c-4.2,0-7.5-1.2-9.9-3.7
	c-2.4-2.5-3.6-5.9-3.6-10.3c0-4.4,1.4-8,4.1-10.8c2.8-2.8,6.2-4.2,10.3-4.2c2.3,0,4.3,0.4,6.2,1.3V31.7l7-1.6V70H211z M211,49.1
	c-1.4-1.1-2.8-1.7-4.4-1.7c-2.6,0-4.6,0.8-6,2.4c-1.4,1.6-2.1,3.9-2.1,6.8c0,5.8,2.8,8.7,8.4,8.7c0.6,0,1.4-0.2,2.3-0.6
	c0.9-0.4,1.5-0.8,1.8-1.1V49.1z"/>
<path class="st0" d="M249,59H229c0.1,2.2,0.9,4,2.3,5.2c1.4,1.2,3.3,1.9,5.7,1.9c3,0,5.2-0.8,6.8-2.3l2.5,5
	c-2.3,1.9-5.7,2.8-10.3,2.8c-4.3,0-7.6-1.2-10.1-3.7c-2.5-2.5-3.7-6-3.7-10.4c0-4.4,1.4-8,4.1-10.7c2.7-2.7,6-4.1,9.8-4.1
	c4,0,7.3,1.2,9.7,3.6c2.5,2.4,3.7,5.5,3.7,9.2C249.5,56.2,249.3,57.4,249,59z M229.2,53H243c-0.5-4.1-2.7-6.1-6.8-6.1
	C232.5,46.9,230.1,48.9,229.2,53z"/>
<path class="st1" d="M70.4,53.1l-1.1,12.9l-3.7-2.6l0.4-6.6c0,0,0,0,0,0c0,0,0,0,0,0c0,0,0-0.1,0-0.1c0,0,0,0,0-0.1
	c0,0,0-0.1-0.1-0.1c0,0,0,0,0,0c0,0-0.1-0.1-0.1-0.1c0,0,0,0,0,0c0,0,0,0-0.1-0.1l-7.9-5.2l0.1-5.7L70.4,53.1z M51.1,67l-5.7-4.3
	l0,1c0,0.2-0.1,0.4-0.3,0.5l-4.3,2.9l4.7,3.8c0,0,0,0,0,0c0,0,0,0,0,0c0,0,0,0,0.1,0.1c0,0,0,0,0,0c0,0,0,0.1,0,0.1c0,0,0,0,0,0.1
	c0,0,0,0.1,0,0.1c0,0,0,0,0,0l0.2,4.5l5.2,4.4L51.1,67z M14.9,72.6l2.7,12.9l11.1,11.8l-1.9-13L14.9,72.6z M25.3,74.6l-2.6-18
	L9.2,45.4l3.6,17.5L25.3,74.6z M21.1,45.4l-3.7-25.6L1.9,10.3l5,24.1L21.1,45.4z"/>
<path class="st1" d="M81.5,46.1l-1.7,12.2l-9.3,7.4l1.1-12.6L81.5,46.1z M52,67l0.1,13.2l11.8-9.4L64.7,58L52,67z M44.5,72.5
	L28,84.3L30,98L45,86L44.5,72.5z M44.1,63.4l-0.8-17.9L23.9,56.6l2.7,18.6L44.1,63.4z M42.9,35.2l-1-24.3l-23.3,9l3.8,26L42.9,35.2z
	"/>
<path class="st0" d="M82.8,44.7c0-0.5-0.8-0.7-1.1-0.9c-1.2-0.7-2.5-1.4-3.7-2c-2.8-1.5-5.5-3.1-8.3-4.6c-0.6-0.3-0.9-0.6-1.6-0.2
	c-1.1,0.6-8.4,5-10.9,6.7c-0.7,0.5-0.5,1.2-0.5,2c0,1.5-0.1,3.1-0.1,4.6c-1-0.7-4.6-3.4-5.5-2.9c-2.2,1.2-4.3,2.6-6.4,3.9
	c-0.1-1.5-0.1-3-0.2-4.5c0-0.8,0.2-2.2-0.4-2.8c-0.3-0.3-5.8-3.9-6.9-4.6c1.9-1,6.7-3.4,6.8-4c0.1-0.4-0.5-11.2-0.7-16.1
	c-0.1-2.3-0.2-4.6-0.3-6.9c0-0.7,0.2-2.3-0.4-2.8c-0.2-0.2-0.7-0.3-0.9-0.4C41,8.7,25.2,1,24.7,1c-0.3,0-0.6,0.2-0.8,0.3
	c-4.5,1.4-23,7.1-23.2,7.2c-0.6,0.5,0,2,0.2,2.5c0.5,2.2,4.6,23.6,5.2,24.2c0.7,0.7,1.6,1.2,2.3,1.8c1.1,0.8,2.1,1.6,3.2,2.5
	c0.5,0.4,1.1,0.8,1.6,1.2c-1,0.5-2.1,1-3.1,1.5c-0.6,0.3-2.1,0.6-2.4,1.3c-0.2,0.4,0.1,0.9,0.1,1.3c0.2,1.1,0.5,2.2,0.7,3.3
	c0.6,3.1,2.5,12,2.7,13.3c0.1,0.6,0.2,1.3,0.4,1.8c0.4,0.9,4.2,4.1,5.2,5.1c-1,0.6-2.1,1.2-3.1,1.9c-0.6,0.4-0.5,0.8-0.3,1.4
	c0.6,2.8,1.2,5.6,1.7,8.4c0.3,1.4,0.6,2.9,0.9,4.3c0.1,0.6,0.1,1.4,0.5,1.9c0.3,0.5,0.8,0.9,1.2,1.3c1,1,7.2,7.6,9.4,9.9
	c0.6,0.6,1.8,2.7,2.8,2.1c0.6-0.4,1.1-0.9,1.7-1.3c1.1-0.9,8.3-6.6,10.9-8.7c0.9-0.7,1.8-1.4,2.7-2.1c0.4-0.3,0.9-0.6,1-1.2
	c0.2-1-0.4-8.5-0.4-8.8c1.7,1.5,3.4,3,5.2,4.4c1,0.7,2.1-0.8,2.8-1.3c2.2-1.8,8.7-6.9,9.7-7.7c0.4-0.3,1-0.6,1.3-1
	c0.6-0.7,0.4-2.5,0.4-3.4c0.1-1.2,0.1-2.4,0.2-3.5c1,0.7,2,1.4,3.1,2.1c0.5,0.4,1,0.9,1.6,0.6c0.7-0.4,4.5-3.6,5.7-4.5
	c1.1-0.9,4.8-3.6,5-4.2c0.2-0.6,0.7-5,0.9-6.5C82,50.5,82.9,45.5,82.8,44.7z M70.5,65.7l1.1-12.6l9.8-7l-1.7,12.2L70.5,65.7z
	 M65.6,63.4c0.1-1.1,0.1-2.3,0.2-3.4c0.1-1,0.4-2.2,0.2-3.2c-0.1-0.6-0.9-1-1.4-1.3c-1.3-0.9-2.6-1.7-3.9-2.6
	c-0.9-0.6-1.9-1.2-2.8-1.9l0.1-5.7l12.5,7.8l-1.1,12.9L65.6,63.4z M63.8,70.9L52,80.3L51.9,67L64.6,58L63.8,70.9z M45,86L30,98
	l-2-13.7l16.5-11.8L45,86z M17.5,85.5l-2.7-12.9l11.9,11.7l1.9,13L17.5,85.5z M17.3,19.8l3.7,25.6l-14.1-11l-5-24.1L17.3,19.8z
	 M41.8,10.9l1,24.3L22.3,45.8l-3.8-26L41.8,10.9z M44.1,63.4L26.6,75.2l-2.7-18.6l19.4-11.1L44.1,63.4z M22.7,56.6l2.6,18L12.8,62.8
	L9.2,45.4L22.7,56.6z M45.5,71.4c0-0.7-1.5-1.5-1.9-1.8c-1-0.8-2-1.6-2.9-2.4c1-0.7,2-1.4,3-2c0.4-0.3,0.9-0.5,1.2-0.8
	c0.4-0.4,0.3-1,0.2-1.6l5.7,4.3l0.1,13.2l-5.2-4.4L45.5,71.4z"/>
</svg>
