<?xml version="1.0" encoding="utf-8"?>
<!-- Generator: Adobe Illustrator 14.0.0, SVG Export Plug-In . SVG Version: 6.00 Build 43363)  -->
<!DOCTYPE svg PUBLIC "-//W3C//DTD SVG 1.1//EN" "http://www.w3.org/Graphics/SVG/1.1/DTD/svg11.dtd">
<svg version="1.1" id="Layer_1" xmlns="http://www.w3.org/2000/svg" xmlns:xlink="http://www.w3.org/1999/xlink" x="0px" y="0px"
	 width="612px" height="253px" viewBox="0 270.5 612 253" enable-background="new 0 270.5 612 253" xml:space="preserve">
<path fill="#EEEEEE" d="M244.8,350.222l17.136-3.917v80.05c0,8.813,2.693,13.953,8.079,15.667c-2.693,4.896-7.1,7.344-13.464,7.344
	c-7.833,0-11.75-5.141-11.75-15.667V350.222z"/>
<polygon fill="#EEEEEE" points="286.416,444.96 286.416,391.104 279.072,391.104 279.072,376.416 303.552,376.416 303.552,444.96 
	"/>
<path fill="#EEEEEE" d="M294.984,350.957c11.996,0,11.996,18.604,0,18.604C282.989,369.562,282.989,350.957,294.984,350.957z"/>
<path fill="#EEEEEE" d="M364.752,444.96v-39.413c0-5.875-0.979-10.037-3.183-12.729c-2.203-2.692-5.63-3.917-10.526-3.917
	c-2.203,0-4.651,0.734-7.099,1.958c-2.448,1.224-4.651,2.938-5.876,4.896v49.205h-14.688v-68.544h11.261l2.938,6.365
	c4.162-5.141,10.526-7.589,18.85-7.589c8.078,0,14.198,2.448,18.85,7.344s6.854,11.75,6.854,20.563v41.86H364.752z"/>
<path fill="#EEEEEE" d="M394.128,411.667c0-10.526,2.938-18.85,9.058-25.459c6.12-6.61,13.954-9.792,23.746-9.792
	c10.281,0,18.359,3.182,24.234,9.547c5.631,6.365,8.568,14.932,8.568,25.949c0,10.771-2.938,19.584-8.813,25.948
	c-5.876,6.365-13.954,9.548-23.99,9.548c-10.282,0-18.36-3.183-24.235-9.792C397.065,431.007,394.128,422.193,394.128,411.667z
	 M410.774,411.667c0,15.178,5.386,22.521,16.157,22.521c4.896,0,8.813-1.958,11.75-5.875s4.406-9.547,4.406-16.646
	c0-14.933-5.386-22.277-16.156-22.277c-4.896,0-8.813,1.958-11.751,5.875S410.774,404.568,410.774,411.667z"/>
<path fill="#EEEEEE" d="M516.528,444.96v-4.161c-1.469,1.469-3.917,2.692-7.1,3.916c-3.427,0.979-6.854,1.714-10.526,1.714
	c-10.281,0-18.36-2.938-24.235-9.058s-8.813-14.443-8.813-25.214c0-10.771,3.427-19.584,10.037-26.439
	c6.854-6.854,15.177-10.282,25.214-10.282c5.631,0,10.526,0.979,15.178,3.183v-27.417l17.136-3.917v97.675H516.528z
	 M516.528,393.797c-3.428-2.693-6.854-4.162-10.771-4.162c-6.365,0-11.261,1.958-14.688,5.875
	c-3.427,3.917-5.141,9.547-5.141,16.647c0,14.198,6.854,21.297,20.563,21.297c1.469,0,3.427-0.489,5.63-1.469
	c2.204-0.979,3.673-1.958,4.407-2.692V393.797z"/>
<path fill="#EEEEEE" d="M609.552,418.032h-48.96c0.245,5.386,2.203,9.792,5.631,12.729c3.427,2.938,8.078,4.651,13.953,4.651
	c7.344,0,12.729-1.959,16.646-5.631l6.12,12.24c-5.63,4.651-13.953,6.854-25.215,6.854c-10.526,0-18.604-2.938-24.725-9.058
	s-9.058-14.688-9.058-25.459c0-10.771,3.428-19.584,10.037-26.194c6.609-6.61,14.688-10.037,23.99-10.037
	c9.792,0,17.87,2.938,23.746,8.813c6.119,5.875,9.058,13.464,9.058,22.521C610.776,411.178,610.286,414.115,609.552,418.032z
	 M561.082,403.344h33.782c-1.225-10.037-6.61-14.933-16.646-14.933C569.16,388.411,563.285,393.307,561.082,403.344z"/>
<path fill="#2D2A26" d="M172.339,403.589l-2.693,31.579l-9.058-6.365l0.979-16.156l0,0l0,0v-0.245c0,0,0,0,0-0.244
	c0,0,0-0.245-0.245-0.245l0,0l-0.245-0.245l0,0c0,0,0,0-0.245-0.244l-19.339-12.73l0.245-13.953L172.339,403.589z M125.093,437.616
	l-13.954-10.526v2.447c0,0.49-0.245,0.979-0.734,1.225l-10.526,7.099l11.505,9.303l0,0l0,0c0,0,0,0,0.245,0.245l0,0v0.244
	c0,0,0,0,0,0.245v0.245l0,0l0.489,11.016l12.73,10.771L125.093,437.616z M36.475,451.325l6.61,31.579l27.173,28.886l-4.651-31.823
	L36.475,451.325z M61.935,456.221l-6.365-44.063l-33.048-27.418l8.813,42.84L61.935,456.221z M51.653,384.739l-9.058-62.669
	L4.651,298.814l12.24,58.997L51.653,384.739z"/>
<path fill="#2D2A26" d="M199.512,386.453l-4.162,29.866l-22.767,18.115l2.693-30.845L199.512,386.453z M127.296,437.616
	l0.245,32.313l28.886-23.012l1.958-31.334L127.296,437.616z M108.936,451.08l-40.392,28.887l4.896,33.537l36.72-29.376
	L108.936,451.08z M107.957,428.803l-1.958-43.819l-47.491,27.173l6.609,45.532L107.957,428.803z M105.019,359.77l-2.448-59.486
	l-57.039,22.032l9.302,63.648L105.019,359.77z"/>
<path fill="#EEEEEE" d="M202.694,383.025c0-1.224-1.958-1.713-2.693-2.203c-2.938-1.713-6.12-3.427-9.058-4.896
	c-6.854-3.672-13.464-7.589-20.318-11.261c-1.469-0.734-2.203-1.469-3.917-0.49c-2.693,1.469-20.563,12.24-26.684,16.402
	c-1.713,1.224-1.224,2.938-1.224,4.896c0,3.672-0.245,7.589-0.245,11.261c-2.448-1.713-11.261-8.323-13.464-7.099
	c-5.386,2.938-10.526,6.365-15.667,9.547c-0.245-3.672-0.245-7.344-0.49-11.016c0-1.958,0.49-5.386-0.979-6.854
	c-0.735-0.734-14.199-9.547-16.892-11.261c4.651-2.448,16.402-8.323,16.646-9.792c0.245-0.979-1.224-27.417-1.713-39.413
	c-0.245-5.63-0.49-11.261-0.734-16.891c0-1.713,0.489-5.63-0.979-6.854c-0.489-0.489-1.713-0.734-2.203-0.979
	c-1.713-1.224-40.392-20.074-41.616-20.074c-0.734,0-1.469,0.49-1.958,0.734c-11.016,3.427-56.304,17.381-56.794,17.626
	c-1.469,1.224,0,4.896,0.49,6.12c1.224,5.386,11.261,57.773,12.729,59.242c1.714,1.714,3.917,2.938,5.63,4.406
	c2.693,1.958,5.141,3.917,7.834,6.12c1.224,0.979,2.693,1.958,3.917,2.938c-2.448,1.224-5.141,2.448-7.589,3.672
	c-1.469,0.734-5.141,1.469-5.875,3.182c-0.49,0.979,0.245,2.203,0.245,3.183c0.49,2.693,1.224,5.385,1.714,8.078
	c1.469,7.589,6.12,29.376,6.609,32.559c0.245,1.469,0.49,3.183,0.979,4.406c0.979,2.203,10.281,10.037,12.729,12.485
	c-2.448,1.469-5.141,2.938-7.589,4.65c-1.469,0.979-1.224,1.959-0.734,3.428c1.469,6.854,2.938,13.709,4.162,20.563
	c0.734,3.427,1.469,7.099,2.203,10.526c0.245,1.469,0.245,3.427,1.224,4.65c0.734,1.225,1.958,2.203,2.938,3.183
	c2.448,2.448,17.625,18.604,23.011,24.235c1.469,1.469,4.406,6.609,6.854,5.141c1.469-0.979,2.693-2.203,4.162-3.183
	c2.693-2.203,20.318-16.156,26.683-21.297c2.203-1.714,4.406-3.428,6.609-5.141c0.979-0.735,2.204-1.47,2.448-2.938
	c0.49-2.447-0.979-20.808-0.979-21.542c4.162,3.672,8.323,7.344,12.73,10.771c2.448,1.713,5.141-1.959,6.854-3.183
	c5.386-4.406,21.298-16.892,23.746-18.85c0.979-0.734,2.448-1.469,3.182-2.448c1.469-1.714,0.979-6.12,0.979-8.323
	c0.245-2.938,0.245-5.875,0.49-8.567c2.448,1.713,4.896,3.427,7.589,5.141c1.224,0.979,2.448,2.203,3.917,1.469
	c1.713-0.979,11.016-8.813,13.954-11.017c2.692-2.203,11.75-8.813,12.24-10.281s1.714-12.24,2.203-15.912
	C200.736,397.224,202.939,384.984,202.694,383.025z M172.584,434.434l2.693-30.845l23.99-17.136l-4.162,29.866L172.584,434.434z
	 M160.589,428.803c0.245-2.692,0.245-5.63,0.49-8.322c0.245-2.448,0.979-5.386,0.489-7.834c-0.245-1.469-2.203-2.448-3.427-3.183
	c-3.182-2.203-6.365-4.161-9.547-6.364c-2.204-1.469-4.651-2.938-6.854-4.651l0.245-13.954l30.6,19.095l-2.693,31.579
	L160.589,428.803z M156.183,447.163l-28.887,23.012l-0.245-32.559l31.089-22.032L156.183,447.163z M110.16,484.128l-36.72,29.376
	l-4.896-33.537l40.392-28.887L110.16,484.128z M42.84,482.904l-6.609-31.579l29.131,28.642l4.651,31.823L42.84,482.904z
	 M42.351,322.07l9.058,62.669l-34.517-26.928l-12.24-58.997L42.351,322.07z M102.326,300.283l2.448,59.486L54.59,385.718
	l-9.302-63.648L102.326,300.283z M107.957,428.803l-42.84,28.887l-6.609-45.532l47.491-27.173L107.957,428.803z M55.57,412.157
	l6.365,44.063l-30.6-28.887l-8.813-42.595L55.57,412.157z M111.384,448.387c0-1.713-3.672-3.672-4.651-4.406
	c-2.448-1.958-4.896-3.916-7.099-5.875c2.448-1.714,4.896-3.427,7.344-4.896c0.979-0.734,2.203-1.225,2.938-1.959
	c0.979-0.979,0.734-2.448,0.49-3.917l13.954,10.526l0.245,32.314l-12.729-10.771L111.384,448.387z"/>
</svg>
