<?xml version="1.0" encoding="utf-8"?>
<!-- Generator: Adobe Illustrator 22.0.1, SVG Export Plug-In . SVG Version: 6.00 Build 0)  -->
<svg version="1.1" id="Layer_1" xmlns="http://www.w3.org/2000/svg" xmlns:xlink="http://www.w3.org/1999/xlink" x="0px" y="0px"
	 viewBox="0 0 715 350.1" style="enable-background:new 0 0 715 350.1;" xml:space="preserve">
<style type="text/css">
	.st0{fill:#C114A2;}
	.st1{fill:#2D2A26;}
	.st2{fill:#FFD100;}
</style>
<g id="Circles">
	<path class="st0" d="M160.5,270.1c10.7-2.1,17.7-12.5,15.7-23.2c-1.8-9-10.5-15.2-19.2-15.8c-4.2,14.2-7.8,31.1-8,38
		C152.4,270.4,156.6,270.8,160.5,270.1z"/>
	<path class="st0" d="M299.1,184.9c-0.8-4-4.6-6.5-8.5-5.8c-1.4,0.3-3.5,2-4.5,2.9l1,6l5,6c0,0,1.2-0.6,1.3-0.6
		C297.3,192.7,299.8,188.8,299.1,184.9z"/>
	<path class="st0" d="M409.6,128c1.5-0.3,4.2-2.1,5.4-3c0.1-3.5-0.6-6.3-3-8c-4.7-3.3-10.2-4.1-14-3c-0.4,1.5-0.4,4.4-0.1,6.1
		C399,125.5,404.2,129.1,409.6,128z"/>
	<path class="st0" d="M358,231.1l-5,2c0.1,1.6,0.9,6.1,1.2,7.8c3.9,20.3,23.6,33.5,43.9,29.6c10.4-2,19.6-9.1,24.9-17.3L358,231.1z"
		/>
	<path class="st0" d="M153,142.1c-9.6-6.3-23.5-9.9-35.7-8c0.1-0.8,0.1-1.6-0.1-2.4c-0.8-4-4.6-6.6-8.6-5.8c-4,0.8-6.6,4.7-5.8,8.7
		c0.3,1.3,0.9,2.5,1.7,3.5c-8.5,4-15.5,10.3-20.3,18c-3.1-0.2-6.2,0-9.4,0.6c-20.7,4-34.3,24.1-30.3,44.9
		c3.6,18.5,21.2,31,39.5,30.6C100.5,203.8,131.4,165.8,153,142.1z"/>
	<path class="st0" d="M268,256.1l-44,35c13.4,21.3,40.2,34.4,66.4,29.3c34.1-6.6,56.3-39.6,49.7-73.7c-0.1-0.6-1-4-1.1-4.6
		L268,256.1z"/>
	<path class="st0" d="M454,50.1c3.2-2.3,5.6-7.4,4.8-11.5c-1.1-5.7-6.6-9.4-12.3-8.3c-5.2,1-8.7,6.7-8.5,11.8
		C444.4,43.4,449.4,46,454,50.1z"/>
	<path class="st0" d="M437.3,11c2.9-0.6,4.8-3.4,4.2-6.3c-0.6-2.9-3.4-4.8-6.3-4.2c-2.9,0.6-4.8,3.4-4.2,6.3
		C431.5,9.6,434.3,11.5,437.3,11z"/>
	<path class="st0" d="M473.3,29.4c2.5-0.5,4.1-2.9,3.7-5.4c-0.5-2.5-2.9-4.1-5.4-3.7c-2.5,0.5-4.1,2.9-3.7,5.4
		C468.4,28.2,470.8,29.8,473.3,29.4z"/>
	<path class="st0" d="M522,185.1l-42,49c0,0,3.6,7.5,5.4,10.6c-0.3,0-0.7,0.1-1,0.1c-6.6,1.3-11,7.7-9.7,14.3
		c1.3,6.6,7.7,11,14.3,9.7c4.7-0.9,8.3-4.4,9.4-8.8c13.5,11.4,31.9,16.8,50.6,13.1c26.9-5.2,46.3-29.2,48.9-55.1L522,185.1z"/>
	<path class="st0" d="M688.7,166.5c-4.3-22-25.6-36.4-47.6-32.1c-7.3,1.4-15.8,6.1-21,10.6l34,69c0.2,0,2.4,0.1,2.5,0.1
		C678.6,209.9,692.9,188.6,688.7,166.5z"/>
	<path class="st0" d="M601,72.1c0,0,3.3,20.8,2,22l-54-1c0,0,2.6,11.8,3,13l11,16c8.8,6.6,22.2,10.9,33.8,8.6
		c10.1-2,18.6-7.5,24.3-15.1c1.6,1.7,4,2.6,6.4,2.1c3.8-0.7,6.3-4.4,5.5-8.2c-0.6-3-3-5.1-5.8-5.6c2.1-6.3,2.7-13.3,1.3-20.3
		c-4.2-21.8-25.3-36-47.1-31.8c-2.4,0.5-8.2,2.4-10.5,3.3L601,72.1z"/>
	<path class="st0" d="M252,89.1l40-6l-17,49l14-3l-3,34c0,0,4.6-0.6,6.2-0.9c3.6-0.7,8.6-2.8,11.8-4.1c-5.1-19.5-10-53-10-53l13-3
		l70-49c-8.6-5.6-21.2-10.3-32.1-8.2c-13.2,2.6-23.7,11.2-29.1,22.4c-2.4-1.9-4.9-3.6-7.5-5.1c1.1-1.3,1.6-3.1,1.3-4.9
		c-0.6-3.2-3.8-5.4-7-4.7c-2.6,0.5-4.5,2.6-4.8,5.2c-8.2-2.5-17.2-3.1-26.2-1.4c-18.1,3.5-32.3,15.7-39.1,31.3
		c-1.8-2.2-4.6-3.3-7.6-2.7c-4.3,0.8-7,4.9-6.2,9.2c0.8,4.3,4.9,7,9.2,6.2c0.3-0.1,0.6-0.1,0.8-0.2c-0.8,4.7-1.2,11.1-0.7,16.1
		L252,89.1z"/>
	<path class="st0" d="M434.1,306.1c3.8-0.7,6.3-4.4,5.6-8.2c-0.7-3.8-4.4-6.3-8.2-5.6c-3.8,0.7-6.3,4.4-5.6,8.2
		C426.6,304.4,430.3,306.9,434.1,306.1z"/>
	<path class="st0" d="M26.5,194c2.9-7-0.5-15-7.5-17.8c-7-2.9-15,0.5-17.8,7.5c-2.9,7,0.5,15,7.5,17.8C15.6,204.3,23.6,201,26.5,194
		z"/>
	<path class="st0" d="M50.6,151.7c-3.4-1.4-7.3,0.2-8.6,3.6c-1.4,3.4,0.2,7.3,3.6,8.6c3.4,1.4,7.3-0.2,8.6-3.6
		C55.6,156.9,54,153,50.6,151.7z"/>
	<path class="st0" d="M34.2,212.3c-2.6-1.1-5.7,0.2-6.7,2.8c-1.1,2.6,0.2,5.7,2.8,6.7c2.6,1.1,5.7-0.2,6.7-2.8
		C38.1,216.4,36.8,213.4,34.2,212.3z"/>
	<path class="st0" d="M291.9,49.1c3-0.6,4.9-3.5,4.4-6.5c-0.6-3-3.5-4.9-6.5-4.4c-3,0.6-4.9,3.5-4.4,6.5
		C286,47.7,288.9,49.7,291.9,49.1z"/>
	<path class="st0" d="M647.3,88.4c6.1-1.2,10-7,8.8-13.1c-1.2-6.1-7-10-13.1-8.8c-6.1,1.2-10,7-8.8,13.1
		C635.4,85.6,641.2,89.6,647.3,88.4z"/>
	<path class="st0" d="M688.2,199.7c-4.3,0.8-7,5-6.2,9.2c0.8,4.3,5,7,9.2,6.2c4.3-0.8,7-5,6.2-9.2
		C696.6,201.7,692.5,198.9,688.2,199.7z"/>
	<path class="st0" d="M174.3,308.2c-3.2,0.6-5.3,3.7-4.7,6.9c0.6,3.2,3.7,5.3,6.9,4.7c3.2-0.6,5.3-3.7,4.7-6.9
		C180.6,309.7,177.5,307.6,174.3,308.2z"/>
	<path class="st0" d="M147.6,293.7c-5.9,1.2-9.8,6.9-8.7,12.8c1.2,5.9,6.9,9.8,12.8,8.7c5.9-1.2,9.8-6.9,8.7-12.8
		C159.3,296.4,153.6,292.5,147.6,293.7z"/>
	<path class="st0" d="M392.6,138.9c2.8-0.5,4.5-3.2,4-6c-0.5-2.8-3.2-4.5-6-4c-2.7,0.5-4.5,3.2-4,5.9
		C387.2,137.7,389.8,139.5,392.6,138.9z"/>
</g>
<path id="MUSE_x5F_black" class="st1" d="M660.9,158.4c-1.4-2.2-23.8-10.4-38.8-14.7c-6.3-1.8-11.3-2.8-13-2.5
	c-2.4,0.5-1.7,6.7-1.8,6.7c-0.3,0-0.8-5.9-2.7-6.5c-8.9-2.5-45-10.7-45.4-12.4c-0.2-1,4.2-3,5.9-5.6c0.5-0.7,0.8-1.5,0.6-2.3
	c-0.6-3.8-4.6-16.4-5.9-16.8c-2.3-0.6-5.6-1.2-9.2-1.7c-9.2-1.4-20.1-2.6-19.1-4.4c0.6-1.1,8.2-1.2,18-0.6c15.5,0.8,36.7,2.9,45,4.3
	c1.4,0.2,2.3,0.2,3-0.5c0.6-0.5,0.6-4.6,0.9-4.1c0.4,0.8,6.9,1,7.4,0.6c1.3-1.2-2.8-25.7-3.5-26.5c-1.4-1.6-23.8-11.2-27.7-17.4
	c-0.1-0.2-0.3-0.4-0.4-0.7c-2.5-5.7,6.4-29.8,2.9-38.1c-3.8-9.1-117.8,38.5-120.8,35.4c-0.5-0.5-1-0.9-1.5-1.4
	c-4.6-4.1-10.4-6.6-16.8-8c-19.9-4.2-45.9,3-62.9,9.6c-1.6,0.6-3.2,1.3-4.6,1.9c-38.3,16.1-60.1,40.7-64.6,47.3
	c-0.9,1.3-5.3,1-12,4.1c-0.6,0.3-1.7,1-1.7,2.9c-0.3,8.6,5.2,32.7,10.3,52.2c3.7,14.5,7.2,26.5,7.7,27.9c3.6,9.6-9.4,12.2-17.3,6.5
	c-2-1.5-3.7-3.4-4.6-6c-0.9-2.3-1.3-4.2-1.4-6.4c-0.2-3.8,0.3-8.6,0.5-18.2c0-1.4,0.1-2.8,0.1-4.3c0.3-12.9,4.8-27.9,2.5-31.5
	c-3.1-4.8-7.5,2.1-13.2,3.7c-3.1,0.9,14.7-34.9,16.4-48.3c0.2-1.9-27.1,2.3-41.4,5.4c-6.1,1.3-16,15-23.5,26.9
	c-4.3,6.8-7.9,12.9-9.6,15.8c-1.4,2.4,3.8-10.3,3.9-16.2c0.1-5.9-38.1,1.6-49.3,6.5c-4.2,1.8-12.4,9.5-22.3,20.4
	c-21.6,23.8-51.6,63-68.1,91.2c-5.8,9.9-9.9,18.4-11.4,24.4c-3.6,14.2,74,28.3,76.9,30.6c2.9,2.3,0.8-5.3,1.1-18.4c0,0,0,0,0,0
	c0.2-6.9,4.5-23.9,8.7-38.1c3.7-12.7,7.4-23.2,7.8-22.6c2.5,3.1-4.5,17.5-2.5,20.2c2.3,2.9,15.9,0.2,19.1-0.7
	c3.9-1.2,9.1-20.3,11.1-18.8c1.6,1.1-9.3,26-10.8,39.3c-1.4,11.9,1.2,22.6,3.8,31.1c2.3,7.4,20.1,11,38.5,12.8
	c19,1.8,38.7,1.5,42.7,1.1c23.3-2.3,17.4-13.2,16.1-14.3c-5.2-4.5-15.8-21.7-15.1-21.2c1.5,1,7.5,2.1,15.8,2.2
	c11.2,0.2,23-3.2,30.3-5c6.5-1.6,16-5.3,24.7-10c5.1-2.8,10-5.9,13.9-9.1c1.5-1.2,2.8-2.4,3.9-3.7c0.9-1,22.3,23.8,64.8,21.8
	c4.7-0.2,9.7-0.7,14.9-1.7c16.6-3,31.3-9.5,43.5-17.4c22.8-14.7,37.2-34.4,39.5-45.6c0.4-1.8,62.6,20.6,77.6,30.4
	c1.9,1.3,3.1,2.3,3.2,3.1c0,0,2.3-5.4,3.1-6.3c0.6-0.7,21.4,10.9,24.6,11.8c1.2,0.3,1.2-2.4,1.9-2c2.1,1.1,8,4.8,12.6,8.3
	c0,0,6.6-8.4,12.8-20.3C664.3,198.2,671.7,175.6,660.9,158.4z M475,165.1c0.4,0.9-102.9-1.4-106-2l1-58h68L475,165.1z M366,176.4
	c4.5-0.4,10.7,0.4,16,0.2c-3.2,2.6-8.6,3.6-13.2,5.2C368.3,179.3,366.8,178.3,366,176.4z M391.8,177.6c-0.7-1.5,37.4-0.4,39.1,3
	C432.3,183.6,399.8,195.4,391.8,177.6z"/>
<path id="MUSE_x5F_yellow" class="st2" d="M647.2,156.6c-14-6-36.3-11.8-36.4-11.5c-0.5,1.3-1.1,2.9-1.9,5l-2.7,0.3
	c-0.7-2.7-2.1-4.4-3.8-5.5c-0.8-0.5-27.2-7.4-55.9-12.4c-26.7-4.6-53.6-5.1-56-5.5c-1.7-0.3,15.7-4.9,34.1-6.2
	c13.9-0.9,26.8,0.4,34.3-0.2c1.7-0.1-2.9-11.3-4.9-12c-3.6-1.2-24.7-5.6-40.4-7.3c-17-1.9-27.8,0.4-27.6-0.7
	c0.5-3.4,31.5-8.7,45.9-9.8c7.5-0.6,21.2-1.9,34.4-1.6c13.8,0.2,27.1,2,32.5,1.4c1-0.1-1.2-15.2-2.2-16.5c-1-1.3-6.8-3-12.7-5.7
	c-6.3-2.8-10.9-8.8-11.2-8.3c-1.5,2.4,2,11.8-1,12.1c-2.2,0.3-4-19.8-1.5-31.4c2.2-10,3.2-19.9-1.4-19.8
	c-12.6,0.3-56.7,15.9-68,19.2c-13.7,3.9-66.5,26.9-67.5,29.7c-0.4,1.1,0.4,7.7,0.2,12.2c-0.3,5.6,2.6,17.3-0.2,16.7
	c-2.4-0.5-7.1-28.8-4.2-32c3.5-3.8,19.8-10.5,22.1-12.6c1.5-1.3-22-16.3-66.6,0.8c-48.4,18.5-73,43.7-70.6,44.1
	c7.8,1.1,44.5-4.2,45.8-2.9c1,1,2.8,22.5,2.4,22.7c-3.7,2.4-21,8.8-20.3,9.9c3.9,6.2,16.4,37.8,20.1,38.5c3.1,0.6,14.2,1,29.1,0
	c18.9-1.2,37.9-0.9,43.8,3.3c3.9,2.8,9.5,8.3,2.9,13.6c-9.6,7.6-13,8-22.4,9.4c-5.8,0.8-16.4,2-28-11.4c-1.1-1.3-30.9,11.5-35.3,7.9
	c-1.9-1.5,12.2-4.3,11.2-6.7c-1.1-2.5-28.8-55.7-28.7-63.8c0-2.9,1.9-5.3,3.6-5.5c0.9-0.1-2.1,1.6-1.5,3.3c0.9,2.3,1.8,3.8,2.5,5.8
	c0.2,0.5,4.2-2.7,8.4-5c4-2.2,8.1-3.4,8.1-4.1c-0.1-1.5-0.8-3.5-0.5-6.2c0.4-3.1,0.8-6.6-0.2-6c-2.2,1.4-5.5,1-12.4,1.7
	c-8.8,1-19.5,0.6-20.8,0.6c-5,0.1-24.5-2-25.1,3c-1.8,14.5,21.1,76.9,20.8,82.8c-0.4,7.4-5,12.3-12.2,13.4
	c-11.6,1.8-19.3-1.1-22.7-12.5c-6.5-21.8,5.1-59.7,2.4-58.6c-3.8,1.7-21,8.2-24.7,9.4c-11.9,3.7-24,3.5-24.1,3.8
	c-1.9,3.8-6.3,12.8-5.4,13c4.8,1.4,8.9,3.4,10.8,7.6c1.8,3.8-0.4,18.4-4.3,26.1c-3.4,6.7-1.6,10.2-1.8,10
	c-3.5-2.2,0.4-18.2,1.3-21.6c0.6-2.4,2.1-9.1,0.1-12.4c-1.3-2.1-5.2-3.3-8.9-3.6c-3.2-0.3-4.4-5.3-3.5-7c2.9-5.4,4.1-15.8,5-15.5
	c6.4,2.1,39.4-6.5,39.8-8.7c0.8-5.1,19.3-46.6,16.3-46.7c-6.2,0-28.4,2.4-33,6.2c-16.6,13.6-50.4,71.6-51.5,71.1
	c-3.7-1.8,15.6-42.6,15.5-46.3c0-1.5-35.8,3.8-39.5,5.1c-5.1,1.8-23.8,26-44.4,51.2c-28.2,34.5-53.6,77.1-51.7,80.1
	c8.2,12.9,62.1,24.2,61.9,22c-0.9-9,3.4-31.8,13.3-57.3c9.3-24,22.9-50.3,24.2-47.5c0.9,1.9,1.3,8,0.4,8.9
	c-3.9,3.7-14.9,43.5-12.7,42.3c5-2.8,14.1-0.5,17-4.2c3-3.8,8.1-20.2,13.3-29.3c2.6-4.6,6.5-7.2,9.3-10.4c2.7-3.2,4.2-7,4.7-6.7
	c1.4,0.8-8.5,20.9-16.4,43.6c-7.3,21-7.5,45.7-1.1,56.7c3.1,5.4,27.4,10.3,49.3,11.4c22.1,1.1,36,3.2,34.6-1
	c-0.8-2.4-24.6-19.9-28-43.9c-3.5-24.8,6.3-50.5,10.3-65.3l2.7,1.8c-1.3,2.9-3.3,15.7-6.2,29.4c-3.4,16.3,1.4,37.6,2.6,39.6
	c4.1,6.8,39.4,3.8,53.2,0.1c8.4-2.3,22.3-7.7,35.5-16c18-11.4,21-25.1,21.2-24.4c0.5,2.1-0.3,6.7-2.3,11.1c-1.8,4.1-4.7,8-3.7,8.8
	c16.6,13.4,42.6,21,66.6,16.9c19.8-3.4,35.8-8.5,48-15.5c26.1-14.9,35.8-35,37.3-40.6c0.6-2.2-35.4-9.1-35.8-10
	c-1.5-3.1,33,5,59.9,12.3c27,7.4,48.8,20.1,50.4,19.3c2.6-1.4,5.2-6.9,6.4-9.6l1.9,1c-0.4,4.9-8.5,14.7-0.4,18.4
	c0.9,0.4,5.4-12.2,6-15.5l2.1,1.2c0,0-0.8,3,0.2,5.1c0.8,1.6,8.6,5.1,15.5,9.5c7.3,4.7,17,10,17,10c1.9-3,9.7-18.6,15.9-37.6
	c4.4-13.4,4.2-27.8,3.2-28.6C657.4,159.7,653.6,159.4,647.2,156.6z M387,148.1l-10-10c-1.9-13.1,26-28,26-28l11,6l3,21l30-3l8,12
	C456,147.7,387,148.1,387,148.1z"/>
<path id="S_Hole" class="st1" d="M489.5,144.6c-3-0.4-16.8-0.7-31.9-1c-0.8-1.7-1.9-4.3-2.9-6c11.4-1.2,23.9-2.4,26.2-2.3
	c2.7,0.1-0.6-19.6-1.6-20.2c-2-1.2-18.9-3.7-19.7-4.1c-0.6-0.3,5.2-18.4,6.3-21.9c1.5-4.6,5.1-21.1,3.6-19.2
	c-2.5,3.2-7.8,19.8-11.6,30.1c-2.4,6.4-2.5,12.9-0.3,14.4c0.7,0.5,15.6,2.2,16.8,4.4c1.4,2.6,1.5,8.9,1.8,10.9
	c0.2,1.1-14.7,1.5-29.6,3c-14.2,1.5-28.3,4.1-28.3,3.2c0.1-5-0.7-15.4-2.4-20.7c-1.6-5.1-8.4-6.8-12.6-6.9
	c-15.7-0.5-30,16.7-28.2,29.7c1.6,11.2,9,10.2,10.5,10.9c1.8,0.7,62.4-0.5,76-0.7c13.9-0.3,29.7,2.3,39.1,4.1
	c15.5,3,20.7,19,22.1,18c1.4-1,5.1-4.2-3.4-13.9C510.8,146.4,497.9,145.7,489.5,144.6z M398.1,115.5c3.8-1.1,8.2-1.2,12.9,2.1
	c2.4,1.7,2.7,5.1,2.6,8.6c-0.1,4.8-1,9.9,1.7,11.7c4,2.7,26.7,1,33.4,0.3c1.2,0.6,2.4,3.3,3.2,5.3c-17.7-0.3-35.3-0.4-38-0.5
	c-5.2,0-30.4,0.8-32-3.6c-4.9-13.3,12.2-22.4,12.2-22.4C395.4,116.5,396.7,115.9,398.1,115.5z"/>
<g id="Collaborative">
	<path class="st1" style="fill: white" d="M417.7,323.4c-3-2.1-6.2,1-8.3,3l0,0c-2.4,2.1-4,5.3-5.2,8.3c-1.3,3-2.3,6.2-1.5,9.5c0.6,2.6,3.2,5.7,6.1,5.7
		c2.8-0.1,5.8-1.6,8.1-3.1c1.5-1,3.1-2.1,3.9-3.7c0.8-1.5-0.2-2.8-1.8-2.5c-2.3,2.1-4.6,4.2-7.6,5.2c-1.4,0.5-3,1-4.2-0.2
		c-1.1-1.2-1.4-2.9-1.4-4.5c0-3.2,1.5-6.2,3.2-8.8c1-1.4,2-2.8,3.3-4c0.8-0.8,2.4-2.5,3.7-2.4c0.8,0.1,0.9,1.1,1.4,1.6
		c0.4,0.4,1.2,0.5,1.7,0.1c0.5-0.5,0.2-1.6,0-2.2C418.9,324.5,418.4,323.8,417.7,323.4z"/>
	<path class="st1" style="fill: white" d="M443.8,318.6c-1.1-0.7-2.5-0.8-3.7-0.4c-0.4,0.1-0.9,0.2-1.2,0.6c-0.4,0.6-0.2,0.7-1,0.3
		c-2.8-1.5-4.7,1.2-6.2,3.3c-3.2,4.5-6.1,10.2-6.2,15.8c0,2.5,0.6,5.1,2.5,6.8c2,1.9,4.9,2,7.4,1.3c5.4-1.4,9.5-6,11.5-11.1
		C449,329.9,449.3,322,443.8,318.6z M445.1,327.1c0.3,4.2-1.4,8.8-4,12c-2.2,2.7-6.8,5.9-10.4,3.7c-3.6-2.3-1.3-8.5-0.1-11.5
		c0.8-2,1.8-3.9,2.9-5.7c0.5-0.8,1-1.6,1.7-2.2c0.5-0.4,0.5-0.5,1-0.3c0.5,0.2,0.8,0.4,1.4,0.3c0.4-0.1,0.8-0.4,1-0.8
		c0.2-0.3,0.1-0.9,0.4-1.1c0.5-0.6,2.2-0.3,2.9-0.1C444.1,322.2,444.9,324.8,445.1,327.1z"/>
	<path class="st1" style="fill: white" d="M472.9,329.9c-0.9-0.9-2.5,0.7-3.2,1.2c-1.1,0.7-2.2,1.5-3.3,2.2c-1.5,1-2.9,1.9-4.5,2.8
		c-0.7,0.4-3.3,2-3.7,0.7c-0.3-1.1-0.1-2.5,0-3.6c0.1-1.2,0.2-2.5,0.3-3.7c0.4-3.6,1-7.2,1.3-10.8c0.1-1.4,0.5-3.5-0.8-4.6
		c-1.4-1.2-2.8,0.6-2.9,2c0.5,3.4-0.2,7.2-0.6,10.5c-0.3,2.6-0.6,5.2-1,7.7c-0.1,0.9-0.2,1.8-0.2,2.7c0,0.7,0,1.5,0.4,2.2
		c0.4,0.7,1,0.9,1.7,1.2c1.5,0.7,2.6,0.7,4.2,0c1.5-0.7,3-1.7,4.5-2.6c1.5-0.9,3-1.8,4.4-2.7c1.3-0.8,3.1-1.6,3.8-3.1
		C473.4,331.3,473.4,330.4,472.9,329.9z"/>
	<path class="st1" style="fill: white" d="M496.4,325.3c-0.9-0.9-2.5,0.7-3.2,1.2c-1.1,0.7-2.2,1.5-3.3,2.2c-1.5,1-2.9,1.9-4.5,2.8
		c-0.7,0.4-3.3,2-3.7,0.7c-0.3-1.1-0.1-2.5,0-3.6c0.1-1.2,0.2-2.5,0.3-3.7c0.4-3.6,1-7.2,1.3-10.8c0.1-1.4,0.5-3.5-0.8-4.6
		c-1.4-1.2-2.8,0.6-2.9,2c0.5,3.4-0.2,7.2-0.6,10.5c-0.3,2.6-0.6,5.2-1,7.7c-0.1,0.9-0.2,1.8-0.2,2.7c0,0.7,0,1.5,0.4,2.2
		c0.4,0.7,1,0.9,1.7,1.2c1.5,0.7,2.6,0.7,4.2,0c1.5-0.7,3-1.7,4.5-2.6c1.5-0.9,3-1.8,4.4-2.7c1.3-0.8,3.2-1.6,3.8-3.1
		C496.9,326.8,496.9,325.8,496.4,325.3z"/>
	<path class="st1" style="fill: white" d="M518.2,304.1c-2.7-2.8-6.6-0.9-8.8,1.4c-2.4,2.5-4.1,5.8-5.5,8.9c-1.4,3.2-2.6,6.6-3.3,10
		c-0.3,1.7-0.5,3.4-0.2,5.1c0.2,1.2,1.2,3.9,2.9,2.7c1.6-1.1,0.6-3.6,0.6-5.2c0-2,0.4-4.1,1.2-6c0.5,0,1,0.3,1.5,0.2
		c0.5,0,1.1-0.3,1.6-0.5c1.1-0.4,2.1-1,3.2-1.5c1-0.4,1.9-0.9,2.9-1.3c0.9-0.4,1.9-0.6,2.8-1c-0.1,1.4-0.1,2.9-0.2,4.3
		c-0.1,1.6-0.6,3.1-0.8,4.6c-0.2,1.2-0.6,3.3,1.2,3.5c2,0.3,2.3-1.8,2.4-3.2l0,0c0.7-2.9,0.9-6,1-9c0.1-2.4,0.1-4.8-0.1-7.2
		C520.3,308.2,519.8,305.7,518.2,304.1z M517,310.9c0.1,0.9,0.2,1.8,0.2,2.7c-3.5,1.4-6.9,2.6-10.6,3.3c0.3-1.4,1-2.7,1.6-3.9
		c0.8-1.6,1.7-3.1,2.9-4.4c0.9-1,2.7-2.6,4.1-1.9C516.6,307.4,516.8,309.6,517,310.9z"/>
	<path class="st1" style="fill: white" d="M544.4,298.2c-3.2-1.1-6.9,0.8-9.6,2.3c-1.2,0.7-2.3,1.3-3.7,1.5c-0.6,0.1-1.1,0.1-1.5,0.7
		c-0.4,0.6-0.5,1.4-0.6,2.2l0,0l0,0.3c0.1,0.5,0.3,1.1,0.5,1.6c-0.2,3.7-0.4,7.3-0.8,10.9c-0.2,2.4-0.7,4.7-0.9,7.1
		c-0.1,0.8-0.2,2.6,1,2.7c0.8,0,1.7-0.5,2.3-1.1c1,1.1,2,1.3,3.4,0.8c1.3-0.4,2.6-1.1,3.8-1.8c2.2-1.4,4.7-3.1,6.2-5.3
		c1.3-2,1.9-5.2-0.4-6.7c-2.2-1.4-5.3-1.3-7.8-1.2c2.9-1.7,5.9-3.4,8.2-5.9C546.3,304.2,548.1,299.5,544.4,298.2z M537.1,315.1
		c1.4,0,3.8-0.3,4.8,1c1.2,1.6-1,3.6-2.2,4.5c-1.5,1.2-3.2,2.2-5,2.9c-1.1,0.4-2.2,0.5-3.3,0.6c0.2-3,0.3-5.9,0.6-8.9
		C533.8,315.3,535.5,315.2,537.1,315.1z M542.8,303.5c-0.3,1-1,1.9-1.8,2.6l0,0c-2.8,2.1-5.5,4.2-8.6,5.9c0.1-1.3,0.4-2.7,0.4-4.1
		c0.5-0.9,0.1-2.1,0.7-2.9c0.8-1.1,2.4-1.8,3.5-2.3C538.3,302.1,543.7,300.1,542.8,303.5z"/>
	<path class="st1" style="fill: white" d="M568.8,294.3c-1.1-0.7-2.5-0.8-3.7-0.4c-0.4,0.1-0.9,0.2-1.2,0.6c-0.4,0.6-0.2,0.7-1,0.3
		c-2.8-1.5-4.7,1.2-6.2,3.3c-3.2,4.4-6,9.9-6.2,15.4c-0.1,2.7,0.5,5.6,2.7,7.4c2.1,1.7,4.9,1.8,7.4,1.1c5.3-1.5,9.4-6,11.3-11
		C574,305.6,574.3,297.7,568.8,294.3z M570.1,302.8c0.3,4.2-1.4,8.8-4,12c-2.2,2.7-6.8,5.9-10.4,3.7c-3.6-2.3-1.3-8.5-0.1-11.5
		c0.8-2,1.8-3.9,2.9-5.7c0.5-0.8,1-1.6,1.7-2.2c0.5-0.4,0.5-0.5,1-0.3c0.5,0.2,0.8,0.4,1.4,0.3c0.4-0.1,0.8-0.4,1-0.8
		c0.2-0.3,0.1-0.9,0.4-1.1c0.5-0.6,2.2-0.3,2.9-0.1C569.2,297.9,570,300.5,570.1,302.8z"/>
	<path class="st1" style="fill: white" d="M597.9,289.5c-1.6-3.2-5.9-2.8-8.8-2.2c-1.4,0.3-2.9,0.9-4.3,1c-1.3,0-3-0.5-4,0.7c-0.9,1.1-0.6,2.7-0.2,3.9
		c0.5,1.7,0.3,3.4,0.2,5.1c-0.2,3.8-0.5,7.7-0.8,11.5c-0.1,2-0.5,4.2-0.3,6.2c0.1,0.7,0.4,1.6,1.2,1.8c0.9,0.2,1.6-0.5,1.9-1.3
		c0.2-4.1,0.6-8.1,0.8-12.2c0.1,0.8,0.5,1.6,1.5,1.7c1.3-0.5,2.4-0.9,3.7-0.7c1.6,0.2,3.2,1.1,4.4,2.1c1.3,1.1,2.5,2.4,3.4,3.8
		c0.7,0.9,1.6,2.8,3,2.7c1.3-0.1,2.1-1.7,1.6-2.9c-0.5-1.3-1.9-2.7-2.8-3.7c-2.3-2.5-4.7-4.1-7.9-5c0.8-0.8,1.8-1.5,2.7-2.2
		c1.1-0.9,2.2-1.9,3.1-3C597.9,294.8,599.3,292.1,597.9,289.5z M594.7,293.5c-1.2,2.3-3.4,4.1-5.4,5.7c-0.9,0.7-1.9,1.4-2.9,2.1
		c-0.9,0.6-2.1,1.2-2.7,2.2c0.3-3.6,0.6-7.2,1-10.8c2-1.2,4.4-1.8,6.7-2.1C593.2,290.4,595.9,290.9,594.7,293.5z"/>
	<path class="st1" style="fill: white" d="M623.3,283.7c-2.7-2.8-6.6-0.9-8.8,1.4c-2.4,2.5-4.1,5.8-5.5,8.9c-1.4,3.2-2.6,6.6-3.3,10
		c-0.3,1.7-0.5,3.4-0.2,5.1c0.2,1.2,1.1,4,2.9,2.7c1.6-1.1,0.6-3.6,0.6-5.2c0-2,0.4-4.1,1.2-6c0.5,0,1,0.2,1.5,0.2
		c0.5,0,1.1-0.3,1.6-0.5c1.1-0.4,2.1-1,3.2-1.5c1-0.4,1.9-0.9,2.9-1.3c0.9-0.4,1.9-0.6,2.8-1c-0.1,1.4-0.1,2.9-0.2,4.3
		c-0.1,1.6-0.6,3.1-0.8,4.6c-0.2,1.2-0.6,3.3,1.2,3.5c1.9,0.3,2.3-1.8,2.4-3.2l0,0c0.7-2.9,0.9-6,1-9c0.1-2.4,0.1-4.8-0.1-7.2
		C625.3,287.8,624.8,285.3,623.3,283.7z M622.1,290.5c0.1,0.9,0.3,1.8,0.2,2.7c-3.5,1.4-6.9,2.6-10.6,3.3c0.3-1.4,1-2.7,1.6-3.9
		c0.8-1.6,1.7-3.1,2.9-4.4c0.9-1,2.7-2.5,4.1-1.9C621.7,286.9,621.9,289.2,622.1,290.5z"/>
	<path class="st1" style="fill: white" d="M656,277.5c1.1-1,0.3-2.9-1.1-3.1c-1.4-0.2-3.1,0.2-4.5,0.5c-3.1,0.6-6.1,1.6-8.9,2.9
		c-2.7,1.2-5.3,2.8-7.7,4.6c-1,0.8-2.2,1.5-2,3c0.2,1.3,1.4,1.7,2.5,1.2c1.3-0.7,2.4-1.8,3.6-2.7c1-0.7,2.4-1.9,3.7-2.2
		c0.4,1.5,0.3,3.2,0.3,4.7c-0.1,2-0.3,4-0.4,5.9c-0.2,2-0.3,4.1-0.5,6.1c-0.1,1-0.1,2-0.2,3c0,0.9-0.1,1.7,0.5,2.4
		c0.5,0.5,1.1,0.6,1.8,0.4c1.1-0.4,1.1-1,1-2c0-1.3,0-2.5,0.1-3.7c0.1-2.3,0.2-4.6,0.4-6.9c0.2-2,0.3-3.9,0.6-5.9
		c0.1-1.1,0.2-2.1,0.2-3.2c0-0.4-0.4-2.4-0.1-2.6c1.8-0.8,3.7-1.3,5.7-1.7c1-0.2,1.9-0.4,2.9-0.5C654.5,277.9,655.4,278,656,277.5z"
		/>
	<path class="st1" style="fill: white" d="M662.1,273.7c-1,0.2-1.8,0.8-2.1,1.8c-0.1,5.1-0.9,10.2-1.2,15.3c-0.1,2.2-0.1,4.3-0.2,6.5
		c0,1.4-0.9,6.5,1.9,5.4c2.2-0.8,1.5-4.2,1.5-6c-0.1-2.4-0.1-4.8,0.2-7.1c0.3-3,0.7-5.9,1.1-8.8
		C663.6,278.6,664.9,274.6,662.1,273.7z"/>
	<path class="st1" style="fill: white" d="M688.9,268.5c-1.2,0.2-1.8,0.8-2,1.9c-0.2,1.2-0.4,2.4-0.7,3.6c-0.5,2.3-1.1,4.7-1.8,7c-1.4,5-3.1,10-6.2,14.3
		c-1.4-0.2-2.2-2-2.6-3.1c-0.5-1.5-0.8-3.1-1.1-4.7c-0.5-3.1-1-6.1-1.3-9.2c-0.1-1.3-0.2-2.8-0.8-4c-0.6-1.1-2.2-1.9-3.2-0.8
		c-1,1.1-0.2,2.8,0.2,3.9c0.3,1,0.5,2,0.6,3c0.6,3,1.1,6.1,1.6,9.1c0.5,3,1.5,5.9,3.5,8.2c1,1.1,2.4,1.9,3.9,1.2
		c1.3-0.6,2-2.3,2.7-3.5c1.4-2.5,2.7-5.1,3.7-7.8c1.4-3.6,2.4-7.4,3.3-11.2c0.4-1.7,0.9-3.4,1.3-5.1
		C690.4,270.3,690.8,268.1,688.9,268.5z"/>
	<path class="st1" style="fill: white" d="M714.6,264.8c-0.6-0.7-2.3-0.3-3.1-0.1c-1.3,0.3-2.6,0.7-3.8,1.2c-2,0.8-4,2.2-6.1,2.7l-0.3-0.7
		c-0.6-0.9-2.1-0.4-2.6,0.3c-0.6,0.9-0.9,2.1-1.1,3.2c-0.5,2.2-0.6,4.5-0.8,6.8c-0.2,2.5-0.4,4.9-0.7,7.4c-0.2,1.3-0.4,2.6-0.5,3.9
		c-0.1,1.3-0.4,2.7-0.2,4c0.8,4.9,9.3-0.4,11.3-1.7c1-0.6,2-1.3,2.9-2.1c0.8-0.7,2.1-1.7,2.3-2.9c0.2-1.2-1-1.2-1.8-0.9
		c-1.2,0.3-2.2,1.2-3.1,2c-1.1,0.9-2.1,1.7-3.4,2.4c-1.1,0.6-2.5,1.4-3.7,1.5c-1.3,0.1-1-1.5-1-2.4c0-1.2,0-2.6,0.3-3.8
		c2.8-1.3,5.1-3.1,7.8-4.6c1.3-0.8,2.8-1.3,3.9-2.3c0.6-0.4,1.2-1.1,1.3-1.8c0.1-1-0.6-1.1-1.4-0.9c-1.6,0.4-3.1,1.4-4.5,2.2
		c-1.5,0.8-3,1.7-4.6,2.5c-0.4,0.2-1.4,0.9-1.8,0.8c-0.4-0.1,0-1.6,0-1.9c0.2-1.4,0.4-2.9,0.7-4.4c0.5-1.9,1.6-2.9,3.3-3.8
		c1.5-0.8,3.2-1.8,4.8-2.4l0,0C709.6,268.3,716.2,266.6,714.6,264.8z"/>
</g>
<g id="The" >
	<path class="st1" style="fill: white" d="M141.1,101c0.2-1.9,0.4-3.8,0.6-5.6c0.1-1,0.2-1.9,0.1-2.9c0-0.3-0.4-2.2-0.1-2.4c1.8-0.8,3.7-1.3,5.7-1.7
		c0.9-0.2,1.8-0.4,2.7-0.4c0.7-0.1,1.8,0.1,2.3-0.4c0.6-0.5,0.6-1.6,0.3-2.2c-0.4-0.9-1.3-0.9-2.2-0.9c-1.9,0.1-3.7,0.5-5.5,0.9
		c-3.7,1-7.3,2.4-10.6,4.3c-1.6,1-3.2,2-4.7,3.2c-0.6,0.5-1.4,1-1.4,1.9c-0.1,0.6,0.2,1.4,0.7,1.8c1.5,1.1,3.5-1.2,4.5-2
		c0.8-0.6,1.5-1.1,2.3-1.6c0.7-0.4,1.5-1.1,2.3-1.3c0.7,2.5,0.2,5.4,0,8c-0.2,3.3-0.6,6.6-0.7,9.9c-0.1,1.2-0.5,3,0.2,4.1
		c0.7,1,2.5,1,3-0.3c0.2-0.5,0-1.3,0-1.9c0-0.8,0-1.5,0-2.3c0-0.6,0.1-1.2,0.1-1.7C140.8,105.5,140.9,103.2,141.1,101z"/>
	<path class="st1" style="fill: white" d="M154,109.8c-0.1,1-0.3,2.4,0.5,3.3c0.9,0.9,2,0.2,2.4-0.7c0.4-1,0.2-2.4,0.3-3.5c0.1-1.3,0.3-2.6,0.6-3.8
		c1.5-0.7,3-1.5,4.5-2.2c1.4-0.7,2.8-1.4,4.2-2.1c1.4-0.7,2.9-1.6,4.5-1.9c0,2.4,0,4.7,0,7.1c0,0.9-0.1,2.2,0.4,3
		c0.6,1,1.8,0.8,2.5,0.1c0.8-0.7,0.8-1.7,0.7-2.7c0-1.2-0.1-2.4-0.1-3.6c-0.1-1.8,0-3.6,0.1-5.4c0.6-0.6,1.2-1.3,1.2-2.2
		c0-0.8-0.4-1.4-0.5-2.1c-0.2-1.5,0.3-3.1,0.5-4.6c0.2-1.5,0.4-2.9,0.6-4.4c0.1-1.2,0.1-2.8-1.2-3.3c-3.2-1.2-2.6,4.7-2.8,6.3
		c-0.1,1.2-0.2,2.4-0.3,3.5c-0.1,1.1,0.1,3.5-0.9,4.3c-4.3,1.9-8.6,4.1-13.1,5.5c0.3-3.1,0.6-6.1,0.9-9.2c0.1-1.4,0.3-2.9,0.4-4.3
		c0.1-0.8,0.1-1.7,0-2.5c-0.2-0.8-0.6-1.5-1.5-1.4c-0.5,0-1.1,0.2-1.3,0.7c-0.8,7.6-1.6,15.2-2.4,22.7
		C154.2,107.4,154.1,108.6,154,109.8z"/>
	<path class="st1" style="fill: white" d="M184,106.9c1.4,0.6,3.3-0.1,4.7-0.6c1.7-0.6,3.3-1.5,4.9-2.5c1.5-0.9,3.1-2,4.3-3.2c0.7-0.7,2.7-3.3,0.5-3.2
		c-1.7,0-3.1,1.4-4.3,2.4c-1.3,1.1-2.7,2-4.3,2.7c-0.7,0.3-1.6,0.7-2.4,0.8c-0.9,0.1-0.9-0.5-1-1.3c-0.1-1.6,0-3.3,0.3-4.9
		c2.8-1.3,5.1-3.1,7.8-4.6c1.3-0.8,2.9-1.4,4.1-2.4c0.5-0.5,1.2-1.1,1.1-1.9c0-0.9-0.7-0.9-1.4-0.8c-1.5,0.4-3,1.4-4.4,2.1
		c-1.5,0.8-3,1.7-4.6,2.5c-0.4,0.2-1.5,1-1.9,0.9c-0.5-0.1-0.1-1.3-0.1-1.8c0.2-1.5,0.4-2.9,0.7-4.4c0.4-2,1.6-3,3.3-3.9
		c1.6-0.8,3.2-1.8,4.8-2.4l0,0c1.6-0.7,3.2-1.1,4.8-1.8c0.7-0.3,1.6-1,1.3-1.8c-0.3-0.9-1.6-0.7-2.3-0.6c-2,0.3-4,1-5.9,1.9
		c-1.6,0.7-3.3,1.7-5,2.2l-0.3-0.7c-0.7-1.1-2.3-0.3-2.8,0.6c-0.6,1-0.8,2.3-1,3.4c-0.4,2.4-0.6,4.9-0.8,7.4
		c-0.2,2.9-0.6,5.7-0.9,8.5c-0.2,1.5-0.4,2.9-0.4,4.4C182.8,105,182.9,106.4,184,106.9z"/>
</g>
</svg>
