<?xml version="1.0" encoding="utf-8"?>
<!-- Generator: Adobe Illustrator 14.0.0, SVG Export Plug-In  -->
<!DOCTYPE svg PUBLIC "-//W3C//DTD SVG 1.1//EN" "http://www.w3.org/Graphics/SVG/1.1/DTD/svg11.dtd" [
	<!ENTITY ns_flows "http://ns.adobe.com/Flows/1.0/">
]>
<svg version="1.1"
	 xmlns="http://www.w3.org/2000/svg" xmlns:xlink="http://www.w3.org/1999/xlink" xmlns:a="http://ns.adobe.com/AdobeSVGViewerExtensions/3.0/"
	 x="0px" y="0px" width="32px" height="32px" viewBox="-6.805 -0.201 32 32" enable-background="new -6.805 -0.201 32 32"
	 xml:space="preserve">
<defs>
</defs>
<path fill="#B63293" d="M9.24,31.259c0.223-4.326,2.607-11.354,6.063-15.775c1.882-2.41,2.749-4.759,2.749-6.185
	c0-4.949-3.966-8.961-8.856-8.961H9.194c-4.89,0-8.855,4.012-8.855,8.961c0,1.426,0.867,3.774,2.749,6.185
	c3.456,4.422,5.84,11.449,6.062,15.775H9.24z"/>
<path fill="#010101" d="M9.563,31.598H8.827l-0.016-0.321c-0.215-4.166-2.515-11.136-5.99-15.585C0.741,13.029,0,10.645,0,9.299
	C0,4.172,4.125,0,9.194,0c5.071,0,9.196,4.172,9.196,9.299c0,1.346-0.742,3.73-2.82,6.393c-3.478,4.449-5.776,11.419-5.991,15.585
	L9.563,31.598L9.563,31.598z M9.195,0.678c-4.696,0-8.518,3.867-8.518,8.621c0,1.177,0.701,3.446,2.678,5.976
	c2.953,3.78,5.077,9.34,5.839,13.563c0.764-4.224,2.888-9.783,5.842-13.563c1.976-2.529,2.676-4.799,2.676-5.976
	C17.712,4.545,13.893,0.678,9.195,0.678L9.195,0.678z"/>
<circle fill="#010101" cx="9.149" cy="8.969" r="3.755"/>
</svg>
