<?xml version="1.0" encoding="utf-8"?>
<!-- Generator: Adobe Illustrator 22.0.1, SVG Export Plug-In . SVG Version: 6.00 Build 0)  -->
<svg version="1.1" id="Layer_1" xmlns="http://www.w3.org/2000/svg" xmlns:xlink="http://www.w3.org/1999/xlink" x="0px" y="0px"
	 viewBox="0 0 25 25" style="enable-background:new 0 0 25 25;" xml:space="preserve">
<style type="text/css">
	.st0{fill:#E6E6E5;}
</style>
<g>
	<circle class="st0" cx="2.7" cy="21.4" r="2"/>
	<path class="st0" d="M23.4,1.6c-0.6-0.2-1.3,0-1.5,0.6c-0.2,0.6,0,1.3,0.6,1.5c0.6,0.2,1.3,0,1.5-0.6C24.3,2.5,24,1.8,23.4,1.6z"/>
	<path class="st0" d="M14.3,2c-4.2,0-7.9,2.5-9.7,6C2,8.1,0,10.2,0,12.8c0,2.6,2,4.6,4.6,4.7c1.7,3.6,5.4,6,9.7,6
		c5.9,0,10.7-4.8,10.7-10.7S20.2,2,14.3,2z M18.3,19c-0.2,0.1-0.3,0.1-0.5,0.2c-1.2,0-2.4,0-3.6,0c-0.2,0-0.3,0-0.5-0.1
		c-0.7-0.1-1.3-0.3-1.8-0.6c-0.5-0.3-1-0.7-1.4-1.2C10,16.6,9.7,16,9.6,15.3c-0.1-0.4-0.1-0.8-0.1-1.1c0-2.1,0-4.2,0-6.4
		c0-0.1,0-0.1,0-0.2c0-0.7,0.5-1.2,1.1-1.4c0.1,0,0.2-0.1,0.3-0.1c0.1,0,0.3,0,0.4,0c0,0,0.1,0,0.1,0c0.8,0.1,1.3,0.8,1.4,1.6
		c0,0.8,0,1.5,0,2.3c0,0,0,0.3,0,0.4c0.1,0,0.1,0,0.1,0c1.5,0,2.9,0,4.4,0c0.5,0,0.9,0.2,1.3,0.6c0.3,0.4,0.4,1.1,0.1,1.6
		c-0.3,0.5-0.8,0.8-1.4,0.8c-1.4,0-2.9,0-4.3,0c0,0-0.1,0-0.1,0c-0.1,0-0.1,0-0.1,0.1c0,0.4,0,0.8,0,1.2c0,0.5,0.3,0.9,0.7,1.2
		c0.3,0.2,0.6,0.3,0.9,0.3c1.1,0,2.2,0,3.2,0c0.6,0,1.1,0.3,1.3,0.9C19.4,17.6,19.1,18.6,18.3,19z"/>
</g>
</svg>
